<?xml version="1.0" encoding="utf-8" standalone="no"?>
<!DOCTYPE svg PUBLIC "-//W3C//DTD SVG 1.1//EN"
  "http://www.w3.org/Graphics/SVG/1.1/DTD/svg11.dtd">
<svg xmlns:xlink="http://www.w3.org/1999/xlink" width="460.8pt" height="345.6pt" viewBox="0 0 460.8 345.6" xmlns="http://www.w3.org/2000/svg" version="1.1">
 <metadata>
  <rdf:RDF xmlns:dc="http://purl.org/dc/elements/1.1/" xmlns:cc="http://creativecommons.org/ns#" xmlns:rdf="http://www.w3.org/1999/02/22-rdf-syntax-ns#">
   <cc:Work>
    <dc:type rdf:resource="http://purl.org/dc/dcmitype/StillImage"/>
    <dc:date>2022-05-24T09:45:08.353299</dc:date>
    <dc:format>image/svg+xml</dc:format>
    <dc:creator>
     <cc:Agent>
      <dc:title>Matplotlib v3.5.1, https://matplotlib.org/</dc:title>
     </cc:Agent>
    </dc:creator>
   </cc:Work>
  </rdf:RDF>
 </metadata>
 <defs>
  <style type="text/css">*{stroke-linejoin: round; stroke-linecap: butt}</style>
 </defs>
 <g id="figure_1">
  <g id="patch_1">
   <path d="M 0 345.6 
L 460.8 345.6 
L 460.8 0 
L 0 0 
z
" style="fill: #62ff32"/>
  </g>
  <g id="patch_2">
   <path d="M 103.104 307.584 
L 369.216 307.584 
L 369.216 41.472 
L 103.104 41.472 
z
" style="fill: #62ff32"/>
  </g>
  <g id="pane3d_1">
   <g id="patch_3">
    <path d="M 121.234563 188.239388 
L 116.546926 117.29055 
L 110.108348 156.154336 
L 115.21528 229.612508 
" style="fill: #f2f2f2; opacity: 0.5; stroke: #e0dddc; stroke-linejoin: miter"/>
   </g>
  </g>
  <g id="pane3d_2">
   <g id="patch_4">
    <path d="M 121.234563 188.239388 
L 359.833357 184.618578 
L 365.94065 225.868611 
L 115.21528 229.612508 
" style="fill: #e6e6e6; opacity: 0.5; stroke: #e0dddc; stroke-linejoin: miter"/>
   </g>
  </g>
  <g id="pane3d_3">
   <g id="patch_5">
    <path d="M 121.234563 188.239388 
L 359.833357 184.618578 
L 361.715614 113.467532 
L 116.546926 117.29055 
" style="fill: #ececec; opacity: 0.5; stroke: #e0dddc; stroke-linejoin: miter"/>
   </g>
  </g>
  <g id="axis3d_1">
   <g id="line2d_1">
    <path d="M 116.546926 117.29055 
L 361.715614 113.467532 
" style="fill: none; stroke: #000000; stroke-width: 0.8; stroke-linecap: square"/>
   </g>
   <g id="text_1">
    <!-- x -->
    <g style="fill: #830d0d" transform="translate(235.830052 98.400446)scale(0.1 -0.1)">
     <defs>
      <path id="DejaVuSans-78" d="M 3513 3500 
L 2247 1797 
L 3578 0 
L 2900 0 
L 1881 1375 
L 863 0 
L 184 0 
L 1544 1831 
L 300 3500 
L 978 3500 
L 1906 2253 
L 2834 3500 
L 3513 3500 
z
" transform="scale(0.015625)"/>
     </defs>
     <use xlink:href="#DejaVuSans-78"/>
    </g>
   </g>
  </g>
  <g id="axis3d_2">
   <g id="line2d_2">
    <path d="M 359.833357 184.618578 
L 361.715614 113.467532 
" style="fill: none; stroke: #000000; stroke-width: 0.8; stroke-linecap: square"/>
   </g>
   <g id="text_2">
    <!-- y -->
    <g style="fill: #830d0d" transform="translate(400.052436 144.812253)scale(0.1 -0.1)">
     <defs>
      <path id="DejaVuSans-79" d="M 2059 -325 
Q 1816 -950 1584 -1140 
Q 1353 -1331 966 -1331 
L 506 -1331 
L 506 -850 
L 844 -850 
Q 1081 -850 1212 -737 
Q 1344 -625 1503 -206 
L 1606 56 
L 191 3500 
L 800 3500 
L 1894 763 
L 2988 3500 
L 3597 3500 
L 2059 -325 
z
" transform="scale(0.015625)"/>
     </defs>
     <use xlink:href="#DejaVuSans-79"/>
    </g>
   </g>
  </g>
  <g id="axis3d_3">
   <g id="line2d_3">
    <path d="M 359.833357 184.618578 
L 365.94065 225.868611 
" style="fill: none; stroke: #000000; stroke-width: 0.8; stroke-linecap: square"/>
   </g>
   <g id="text_3">
    <!-- z -->
    <g style="fill: #830d0d" transform="translate(403.796131 219.469801)scale(0.1 -0.1)">
     <defs>
      <path id="DejaVuSans-7a" d="M 353 3500 
L 3084 3500 
L 3084 2975 
L 922 459 
L 3084 459 
L 3084 0 
L 275 0 
L 275 525 
L 2438 3041 
L 353 3041 
L 353 3500 
z
" transform="scale(0.015625)"/>
     </defs>
     <use xlink:href="#DejaVuSans-7a"/>
    </g>
   </g>
  </g>
  <g id="axes_1">
   <g id="line2d_4">
    <path d="M 142.845564 190.460503 
L 131.91438 171.139954 
" clip-path="url(#p731862a0bc)" style="fill: none; stroke: #0024ff; stroke-linecap: square"/>
   </g>
   <g id="line2d_5">
    <path d="M 131.91438 171.139954 
L 170.232029 150.766785 
" clip-path="url(#p731862a0bc)" style="fill: none; stroke: #0024ff; stroke-linecap: square"/>
   </g>
   <g id="line2d_6">
    <path d="M 142.845564 190.460503 
L 170.232029 150.766785 
" clip-path="url(#p731862a0bc)" style="fill: none; stroke: #0024ff; stroke-linecap: square"/>
   </g>
   <g id="line2d_7">
    <path d="M 142.845564 190.460503 
L 180.960865 170.390768 
" clip-path="url(#p731862a0bc)" style="fill: none; stroke: #0024ff; stroke-width: 0.5; stroke-linecap: square"/>
   </g>
   <g id="line2d_8">
    <path d="M 180.960865 170.390768 
L 170.232029 150.766785 
" clip-path="url(#p731862a0bc)" style="fill: none; stroke: #0024ff; stroke-width: 0.5; stroke-linecap: square"/>
   </g>
   <g id="line2d_9">
    <path d="M 170.232029 150.766785 
L 219.399954 139.999606 
" clip-path="url(#p731862a0bc)" style="fill: none; stroke: #0024ff; stroke-width: 0.5; stroke-linecap: square"/>
   </g>
   <g id="line2d_10">
    <path d="M 180.960865 170.390768 
L 219.947689 159.936 
" clip-path="url(#p731862a0bc)" style="fill: none; stroke: #0024ff; stroke-width: 0.5; stroke-linecap: square"/>
   </g>
   <g id="line2d_11">
    <path d="M 170.232029 150.766785 
L 219.947689 159.936 
" clip-path="url(#p731862a0bc)" style="fill: none; stroke: #0024ff; stroke-width: 0.5; stroke-linecap: square"/>
   </g>
   <g id="line2d_12">
    <path d="M 180.960865 170.390768 
L 219.399954 139.999606 
" clip-path="url(#p731862a0bc)" style="fill: none; stroke: #0024ff; stroke-width: 0.5; stroke-linecap: square"/>
   </g>
   <g id="line2d_13">
    <path d="M 219.947689 159.936 
L 219.399954 139.999606 
" clip-path="url(#p731862a0bc)" style="fill: none; stroke: #0024ff; stroke-width: 0.5; stroke-linecap: square"/>
   </g>
   <g id="line2d_14">
    <path d="M 219.399954 139.999606 
L 259.126294 139.385819 
" clip-path="url(#p731862a0bc)" style="fill: none; stroke: #0024ff; stroke-width: 0.5; stroke-linecap: square"/>
   </g>
   <g id="line2d_15">
    <path d="M 219.947689 159.936 
L 259.372481 159.331499 
" clip-path="url(#p731862a0bc)" style="fill: none; stroke: #0024ff; stroke-width: 0.5; stroke-linecap: square"/>
   </g>
   <g id="line2d_16">
    <path d="M 219.947689 159.936 
L 259.126294 139.385819 
" clip-path="url(#p731862a0bc)" style="fill: none; stroke: #0024ff; stroke-width: 0.5; stroke-linecap: square"/>
   </g>
   <g id="line2d_17">
    <path d="M 219.399954 139.999606 
L 259.372481 159.331499 
" clip-path="url(#p731862a0bc)" style="fill: none; stroke: #0024ff; stroke-width: 0.5; stroke-linecap: square"/>
   </g>
   <g id="line2d_18">
    <path d="M 259.372481 159.331499 
L 259.126294 139.385819 
" clip-path="url(#p731862a0bc)" style="fill: none; stroke: #0024ff; stroke-width: 0.5; stroke-linecap: square"/>
   </g>
   <g id="line2d_19">
    <path d="M 259.372481 159.331499 
L 298.788063 168.590957 
" clip-path="url(#p731862a0bc)" style="fill: none; stroke: #0024ff; stroke-width: 0.5; stroke-linecap: square"/>
   </g>
   <g id="line2d_20">
    <path d="M 259.126294 139.385819 
L 308.744521 148.634874 
" clip-path="url(#p731862a0bc)" style="fill: none; stroke: #0024ff; stroke-width: 0.5; stroke-linecap: square"/>
   </g>
   <g id="line2d_21">
    <path d="M 259.372481 159.331499 
L 308.744521 148.634874 
" clip-path="url(#p731862a0bc)" style="fill: none; stroke: #0024ff; stroke-width: 0.5; stroke-linecap: square"/>
   </g>
   <g id="line2d_22">
    <path d="M 259.126294 139.385819 
L 298.788063 168.590957 
" clip-path="url(#p731862a0bc)" style="fill: none; stroke: #0024ff; stroke-width: 0.5; stroke-linecap: square"/>
   </g>
   <g id="line2d_23">
    <path d="M 298.788063 168.590957 
L 308.744521 148.634874 
" clip-path="url(#p731862a0bc)" style="fill: none; stroke: #0024ff; stroke-width: 0.5; stroke-linecap: square"/>
   </g>
   <g id="line2d_24">
    <path d="M 308.744521 148.634874 
L 347.930971 167.840298 
" clip-path="url(#p731862a0bc)" style="fill: none; stroke: #0024ff; stroke-width: 0.5; stroke-linecap: square"/>
   </g>
   <g id="line2d_25">
    <path d="M 298.788063 168.590957 
L 337.750413 187.505687 
" clip-path="url(#p731862a0bc)" style="fill: none; stroke: #0024ff; stroke-width: 0.5; stroke-linecap: square"/>
   </g>
   <g id="line2d_26">
    <path d="M 308.744521 148.634874 
L 337.750413 187.505687 
" clip-path="url(#p731862a0bc)" style="fill: none; stroke: #0024ff; stroke-width: 0.5; stroke-linecap: square"/>
   </g>
   <g id="line2d_27">
    <path d="M 337.750413 187.505687 
L 347.930971 167.840298 
" clip-path="url(#p731862a0bc)" style="fill: none; stroke: #0024ff; stroke-width: 0.5; stroke-linecap: square"/>
   </g>
   <g id="line2d_28">
    <path d="M 141.290354 203.569555 
L 130.170555 184.036518 
" clip-path="url(#p731862a0bc)" style="fill: none; stroke: #0024ff; stroke-width: 0.5; stroke-linecap: square"/>
   </g>
   <g id="line2d_29">
    <path d="M 130.170555 184.036518 
L 169.098838 163.434189 
" clip-path="url(#p731862a0bc)" style="fill: none; stroke: #0024ff; stroke-width: 0.5; stroke-linecap: square"/>
   </g>
   <g id="line2d_30">
    <path d="M 141.290354 203.569555 
L 169.098838 163.434189 
" clip-path="url(#p731862a0bc)" style="fill: none; stroke: #0024ff; stroke-width: 0.5; stroke-linecap: square"/>
   </g>
   <g id="line2d_31">
    <path d="M 141.290354 203.569555 
L 180.009854 183.278998 
" clip-path="url(#p731862a0bc)" style="fill: none; stroke: #0024ff; stroke-width: 0.5; stroke-linecap: square"/>
   </g>
   <g id="line2d_32">
    <path d="M 180.009854 183.278998 
L 169.098838 163.434189 
" clip-path="url(#p731862a0bc)" style="fill: none; stroke: #0024ff; stroke-width: 0.5; stroke-linecap: square"/>
   </g>
   <g id="line2d_33">
    <path d="M 169.098838 163.434189 
L 219.066775 152.543786 
" clip-path="url(#p731862a0bc)" style="fill: none; stroke: #0024ff; stroke-width: 0.5; stroke-linecap: square"/>
   </g>
   <g id="line2d_34">
    <path d="M 180.009854 183.278998 
L 219.625977 172.707189 
" clip-path="url(#p731862a0bc)" style="fill: none; stroke: #0024ff; stroke-width: 0.5; stroke-linecap: square"/>
   </g>
   <g id="line2d_35">
    <path d="M 169.098838 163.434189 
L 219.625977 172.707189 
" clip-path="url(#p731862a0bc)" style="fill: none; stroke: #0024ff; stroke-width: 0.5; stroke-linecap: square"/>
   </g>
   <g id="line2d_36">
    <path d="M 180.009854 183.278998 
L 219.066775 152.543786 
" clip-path="url(#p731862a0bc)" style="fill: none; stroke: #0024ff; stroke-width: 0.5; stroke-linecap: square"/>
   </g>
   <g id="line2d_37">
    <path d="M 219.625977 172.707189 
L 219.066775 152.543786 
" clip-path="url(#p731862a0bc)" style="fill: none; stroke: #0024ff; stroke-width: 0.5; stroke-linecap: square"/>
   </g>
   <g id="line2d_38">
    <path d="M 219.066775 152.543786 
L 259.44341 151.922931 
" clip-path="url(#p731862a0bc)" style="fill: none; stroke: #0024ff; stroke-width: 0.5; stroke-linecap: square"/>
   </g>
   <g id="line2d_39">
    <path d="M 219.625977 172.707189 
L 259.691149 172.095878 
" clip-path="url(#p731862a0bc)" style="fill: none; stroke: #0024ff; stroke-width: 0.5; stroke-linecap: square"/>
   </g>
   <g id="line2d_40">
    <path d="M 219.625977 172.707189 
L 259.44341 151.922931 
" clip-path="url(#p731862a0bc)" style="fill: none; stroke: #0024ff; stroke-width: 0.5; stroke-linecap: square"/>
   </g>
   <g id="line2d_41">
    <path d="M 219.066775 152.543786 
L 259.691149 172.095878 
" clip-path="url(#p731862a0bc)" style="fill: none; stroke: #0024ff; stroke-width: 0.5; stroke-linecap: square"/>
   </g>
   <g id="line2d_42">
    <path d="M 259.691149 172.095878 
L 259.44341 151.922931 
" clip-path="url(#p731862a0bc)" style="fill: none; stroke: #0024ff; stroke-width: 0.5; stroke-linecap: square"/>
   </g>
   <g id="line2d_43">
    <path d="M 259.691149 172.095878 
L 299.743576 181.459136 
" clip-path="url(#p731862a0bc)" style="fill: none; stroke: #0024ff; stroke-width: 0.5; stroke-linecap: square"/>
   </g>
   <g id="line2d_44">
    <path d="M 259.44341 151.922931 
L 309.869912 161.277996 
" clip-path="url(#p731862a0bc)" style="fill: none; stroke: #0024ff; stroke-width: 0.5; stroke-linecap: square"/>
   </g>
   <g id="line2d_45">
    <path d="M 259.691149 172.095878 
L 309.869912 161.277996 
" clip-path="url(#p731862a0bc)" style="fill: none; stroke: #0024ff; stroke-width: 0.5; stroke-linecap: square"/>
   </g>
   <g id="line2d_46">
    <path d="M 259.44341 151.922931 
L 299.743576 181.459136 
" clip-path="url(#p731862a0bc)" style="fill: none; stroke: #0024ff; stroke-width: 0.5; stroke-linecap: square"/>
   </g>
   <g id="line2d_47">
    <path d="M 299.743576 181.459136 
L 309.869912 161.277996 
" clip-path="url(#p731862a0bc)" style="fill: none; stroke: #0024ff; stroke-width: 0.5; stroke-linecap: square"/>
   </g>
   <g id="line2d_48">
    <path d="M 309.869912 161.277996 
L 349.682443 180.700103 
" clip-path="url(#p731862a0bc)" style="fill: none; stroke: #0024ff; stroke-width: 0.5; stroke-linecap: square"/>
   </g>
   <g id="line2d_49">
    <path d="M 299.743576 181.459136 
L 339.324848 200.582546 
" clip-path="url(#p731862a0bc)" style="fill: none; stroke: #0024ff; stroke-width: 0.5; stroke-linecap: square"/>
   </g>
   <g id="line2d_50">
    <path d="M 309.869912 161.277996 
L 339.324848 200.582546 
" clip-path="url(#p731862a0bc)" style="fill: none; stroke: #0024ff; stroke-width: 0.5; stroke-linecap: square"/>
   </g>
   <g id="line2d_51">
    <path d="M 339.324848 200.582546 
L 349.682443 180.700103 
" clip-path="url(#p731862a0bc)" style="fill: none; stroke: #0024ff; stroke-width: 0.5; stroke-linecap: square"/>
   </g>
   <g id="line2d_52">
    <path d="M 131.91438 171.139954 
L 130.170555 184.036518 
" clip-path="url(#p731862a0bc)" style="fill: none; stroke: #0024ff; stroke-width: 0.5; stroke-linecap: square"/>
   </g>
   <g id="line2d_53">
    <path d="M 142.845564 190.460503 
L 141.290354 203.569555 
" clip-path="url(#p731862a0bc)" style="fill: none; stroke: #0024ff; stroke-width: 0.5; stroke-linecap: square"/>
   </g>
   <g id="line2d_54">
    <path d="M 180.960865 170.390768 
L 180.009854 183.278998 
" clip-path="url(#p731862a0bc)" style="fill: none; stroke: #0024ff; stroke-width: 0.5; stroke-linecap: square"/>
   </g>
   <g id="line2d_55">
    <path d="M 170.232029 150.766785 
L 169.098838 163.434189 
" clip-path="url(#p731862a0bc)" style="fill: none; stroke: #0024ff; stroke-width: 0.5; stroke-linecap: square"/>
   </g>
   <g id="line2d_56">
    <path d="M 219.399954 139.999606 
L 219.066775 152.543786 
" clip-path="url(#p731862a0bc)" style="fill: none; stroke: #0024ff; stroke-width: 0.5; stroke-linecap: square"/>
   </g>
   <g id="line2d_57">
    <path d="M 219.947689 159.936 
L 219.625977 172.707189 
" clip-path="url(#p731862a0bc)" style="fill: none; stroke: #0024ff; stroke-width: 0.5; stroke-linecap: square"/>
   </g>
   <g id="line2d_58">
    <path d="M 259.126294 139.385819 
L 259.44341 151.922931 
" clip-path="url(#p731862a0bc)" style="fill: none; stroke: #0024ff; stroke-width: 0.5; stroke-linecap: square"/>
   </g>
   <g id="line2d_59">
    <path d="M 259.372481 159.331499 
L 259.691149 172.095878 
" clip-path="url(#p731862a0bc)" style="fill: none; stroke: #0024ff; stroke-width: 0.5; stroke-linecap: square"/>
   </g>
   <g id="line2d_60">
    <path d="M 298.788063 168.590957 
L 299.743576 181.459136 
" clip-path="url(#p731862a0bc)" style="fill: none; stroke: #0024ff; stroke-width: 0.5; stroke-linecap: square"/>
   </g>
   <g id="line2d_61">
    <path d="M 308.744521 148.634874 
L 309.869912 161.277996 
" clip-path="url(#p731862a0bc)" style="fill: none; stroke: #0024ff; stroke-width: 0.5; stroke-linecap: square"/>
   </g>
   <g id="line2d_62">
    <path d="M 347.930971 167.840298 
L 349.682443 180.700103 
" clip-path="url(#p731862a0bc)" style="fill: none; stroke: #0024ff; stroke-width: 0.5; stroke-linecap: square"/>
   </g>
   <g id="line2d_63">
    <path d="M 337.750413 187.505687 
L 339.324848 200.582546 
" clip-path="url(#p731862a0bc)" style="fill: none; stroke: #0024ff; stroke-width: 0.5; stroke-linecap: square"/>
   </g>
   <g id="line2d_64">
    <path d="M 142.845564 190.460503 
L 169.098838 163.434189 
" clip-path="url(#p731862a0bc)" style="fill: none; stroke: #0024ff; stroke-width: 0.5; stroke-linecap: square"/>
   </g>
   <g id="line2d_65">
    <path d="M 131.91438 171.139954 
L 180.009854 183.278998 
" clip-path="url(#p731862a0bc)" style="fill: none; stroke: #0024ff; stroke-width: 0.5; stroke-linecap: square"/>
   </g>
   <g id="line2d_66">
    <path d="M 170.232029 150.766785 
L 219.625977 172.707189 
" clip-path="url(#p731862a0bc)" style="fill: none; stroke: #0024ff; stroke-width: 0.5; stroke-linecap: square"/>
   </g>
   <g id="line2d_67">
    <path d="M 180.960865 170.390768 
L 219.066775 152.543786 
" clip-path="url(#p731862a0bc)" style="fill: none; stroke: #0024ff; stroke-width: 0.5; stroke-linecap: square"/>
   </g>
   <g id="line2d_68">
    <path d="M 219.399954 139.999606 
L 259.691149 172.095878 
" clip-path="url(#p731862a0bc)" style="fill: none; stroke: #0024ff; stroke-width: 0.5; stroke-linecap: square"/>
   </g>
   <g id="line2d_69">
    <path d="M 219.947689 159.936 
L 259.44341 151.922931 
" clip-path="url(#p731862a0bc)" style="fill: none; stroke: #0024ff; stroke-width: 0.5; stroke-linecap: square"/>
   </g>
   <g id="line2d_70">
    <path d="M 259.372481 159.331499 
L 309.869912 161.277996 
" clip-path="url(#p731862a0bc)" style="fill: none; stroke: #0024ff; stroke-width: 0.5; stroke-linecap: square"/>
   </g>
   <g id="line2d_71">
    <path d="M 259.126294 139.385819 
L 299.743576 181.459136 
" clip-path="url(#p731862a0bc)" style="fill: none; stroke: #0024ff; stroke-width: 0.5; stroke-linecap: square"/>
   </g>
   <g id="line2d_72">
    <path d="M 347.930971 167.840298 
L 299.743576 181.459136 
" clip-path="url(#p731862a0bc)" style="fill: none; stroke: #0024ff; stroke-width: 0.5; stroke-linecap: square"/>
   </g>
   <g id="line2d_73">
    <path d="M 337.750413 187.505687 
L 309.869912 161.277996 
" clip-path="url(#p731862a0bc)" style="fill: none; stroke: #0024ff; stroke-width: 0.5; stroke-linecap: square"/>
   </g>
   <g id="Path3DCollection_1">
    <defs>
     <path id="m5fb7abed03" d="M 0 1.581139 
C 0.419323 1.581139 0.821528 1.41454 1.118034 1.118034 
C 1.41454 0.821528 1.581139 0.419323 1.581139 0 
C 1.581139 -0.419323 1.41454 -0.821528 1.118034 -1.118034 
C 0.821528 -1.41454 0.419323 -1.581139 0 -1.581139 
C -0.419323 -1.581139 -0.821528 -1.41454 -1.118034 -1.118034 
C -1.41454 -0.821528 -1.581139 -0.419323 -1.581139 0 
C -1.581139 0.419323 -1.41454 0.821528 -1.118034 1.118034 
C -0.821528 1.41454 -0.419323 1.581139 0 1.581139 
z
" style="stroke: #1f77b4"/>
    </defs>
    <g clip-path="url(#p731862a0bc)">
     <use xlink:href="#m5fb7abed03" x="142.845564" y="190.460503" style="fill: #1f77b4; stroke: #1f77b4"/>
    </g>
   </g>
   <g id="Path3DCollection_2">
    <defs>
     <path id="m056ddd951d" d="M 0 1.581139 
C 0.419323 1.581139 0.821528 1.41454 1.118034 1.118034 
C 1.41454 0.821528 1.581139 0.419323 1.581139 0 
C 1.581139 -0.419323 1.41454 -0.821528 1.118034 -1.118034 
C 0.821528 -1.41454 0.419323 -1.581139 0 -1.581139 
C -0.419323 -1.581139 -0.821528 -1.41454 -1.118034 -1.118034 
C -1.41454 -0.821528 -1.581139 -0.419323 -1.581139 0 
C -1.581139 0.419323 -1.41454 0.821528 -1.118034 1.118034 
C -0.821528 1.41454 -0.419323 1.581139 0 1.581139 
z
" style="stroke: #ff7f0e"/>
    </defs>
    <g clip-path="url(#p731862a0bc)">
     <use xlink:href="#m056ddd951d" x="337.750413" y="187.505687" style="fill: #ff7f0e; stroke: #ff7f0e"/>
    </g>
   </g>
   <g id="Path3DCollection_3">
    <g clip-path="url(#p731862a0bc)">
     <use xlink:href="#m056ddd951d" x="131.91438" y="171.139954" style="fill: #ff7f0e; stroke: #ff7f0e"/>
    </g>
   </g>
   <g id="Path3DCollection_4">
    <defs>
     <path id="mcbab504760" d="M 0 1.581139 
C 0.419323 1.581139 0.821528 1.41454 1.118034 1.118034 
C 1.41454 0.821528 1.581139 0.419323 1.581139 0 
C 1.581139 -0.419323 1.41454 -0.821528 1.118034 -1.118034 
C 0.821528 -1.41454 0.419323 -1.581139 0 -1.581139 
C -0.419323 -1.581139 -0.821528 -1.41454 -1.118034 -1.118034 
C -1.41454 -0.821528 -1.581139 -0.419323 -1.581139 0 
C -1.581139 0.419323 -1.41454 0.821528 -1.118034 1.118034 
C -0.821528 1.41454 -0.419323 1.581139 0 1.581139 
z
" style="stroke: #d62728"/>
    </defs>
    <g clip-path="url(#p731862a0bc)">
     <use xlink:href="#mcbab504760" x="180.960865" y="170.390768" style="fill: #d62728; stroke: #d62728"/>
    </g>
   </g>
   <g id="Path3DCollection_5">
    <defs>
     <path id="mdbbc70f757" d="M 0 1.581139 
C 0.419323 1.581139 0.821528 1.41454 1.118034 1.118034 
C 1.41454 0.821528 1.581139 0.419323 1.581139 0 
C 1.581139 -0.419323 1.41454 -0.821528 1.118034 -1.118034 
C 0.821528 -1.41454 0.419323 -1.581139 0 -1.581139 
C -0.419323 -1.581139 -0.821528 -1.41454 -1.118034 -1.118034 
C -1.41454 -0.821528 -1.581139 -0.419323 -1.581139 0 
C -1.581139 0.419323 -1.41454 0.821528 -1.118034 1.118034 
C -0.821528 1.41454 -0.419323 1.581139 0 1.581139 
z
" style="stroke: #bcbd22"/>
    </defs>
    <g clip-path="url(#p731862a0bc)">
     <use xlink:href="#mdbbc70f757" x="298.788063" y="168.590957" style="fill: #bcbd22; stroke: #bcbd22"/>
    </g>
   </g>
   <g id="Path3DCollection_6">
    <g clip-path="url(#p731862a0bc)">
     <use xlink:href="#m5fb7abed03" x="347.930971" y="167.840298" style="fill: #1f77b4; stroke: #1f77b4"/>
    </g>
   </g>
   <g id="Path3DCollection_7">
    <defs>
     <path id="m3156c6e11e" d="M 0 1.581139 
C 0.419323 1.581139 0.821528 1.41454 1.118034 1.118034 
C 1.41454 0.821528 1.581139 0.419323 1.581139 0 
C 1.581139 -0.419323 1.41454 -0.821528 1.118034 -1.118034 
C 0.821528 -1.41454 0.419323 -1.581139 0 -1.581139 
C -0.419323 -1.581139 -0.821528 -1.41454 -1.118034 -1.118034 
C -1.41454 -0.821528 -1.581139 -0.419323 -1.581139 0 
C -1.581139 0.419323 -1.41454 0.821528 -1.118034 1.118034 
C -0.821528 1.41454 -0.419323 1.581139 0 1.581139 
z
" style="stroke: #8c564b"/>
    </defs>
    <g clip-path="url(#p731862a0bc)">
     <use xlink:href="#m3156c6e11e" x="219.947689" y="159.936" style="fill: #8c564b; stroke: #8c564b"/>
    </g>
   </g>
   <g id="Path3DCollection_8">
    <defs>
     <path id="mabdbc7ea02" d="M 0 1.581139 
C 0.419323 1.581139 0.821528 1.41454 1.118034 1.118034 
C 1.41454 0.821528 1.581139 0.419323 1.581139 0 
C 1.581139 -0.419323 1.41454 -0.821528 1.118034 -1.118034 
C 0.821528 -1.41454 0.419323 -1.581139 0 -1.581139 
C -0.419323 -1.581139 -0.821528 -1.41454 -1.118034 -1.118034 
C -1.41454 -0.821528 -1.581139 -0.419323 -1.581139 0 
C -1.581139 0.419323 -1.41454 0.821528 -1.118034 1.118034 
C -0.821528 1.41454 -0.419323 1.581139 0 1.581139 
z
" style="stroke: #7f7f7f"/>
    </defs>
    <g clip-path="url(#p731862a0bc)">
     <use xlink:href="#mabdbc7ea02" x="259.372481" y="159.331499" style="fill: #7f7f7f; stroke: #7f7f7f"/>
    </g>
   </g>
   <g id="Path3DCollection_9">
    <defs>
     <path id="mf9bb557bfb" d="M 0 1.581139 
C 0.419323 1.581139 0.821528 1.41454 1.118034 1.118034 
C 1.41454 0.821528 1.581139 0.419323 1.581139 0 
C 1.581139 -0.419323 1.41454 -0.821528 1.118034 -1.118034 
C 0.821528 -1.41454 0.419323 -1.581139 0 -1.581139 
C -0.419323 -1.581139 -0.821528 -1.41454 -1.118034 -1.118034 
C -1.41454 -0.821528 -1.581139 -0.419323 -1.581139 0 
C -1.581139 0.419323 -1.41454 0.821528 -1.118034 1.118034 
C -0.821528 1.41454 -0.419323 1.581139 0 1.581139 
z
" style="stroke: #2ca02c"/>
    </defs>
    <g clip-path="url(#p731862a0bc)">
     <use xlink:href="#mf9bb557bfb" x="170.232029" y="150.766785" style="fill: #2ca02c; stroke: #2ca02c"/>
    </g>
   </g>
   <g id="Path3DCollection_10">
    <g clip-path="url(#p731862a0bc)">
     <use xlink:href="#mf9bb557bfb" x="141.290354" y="203.569555" style="fill: #2ca02c; stroke: #2ca02c"/>
    </g>
   </g>
   <g id="Path3DCollection_11">
    <defs>
     <path id="m6a347f44aa" d="M 0 1.581139 
C 0.419323 1.581139 0.821528 1.41454 1.118034 1.118034 
C 1.41454 0.821528 1.581139 0.419323 1.581139 0 
C 1.581139 -0.419323 1.41454 -0.821528 1.118034 -1.118034 
C 0.821528 -1.41454 0.419323 -1.581139 0 -1.581139 
C -0.419323 -1.581139 -0.821528 -1.41454 -1.118034 -1.118034 
C -1.41454 -0.821528 -1.581139 -0.419323 -1.581139 0 
C -1.581139 0.419323 -1.41454 0.821528 -1.118034 1.118034 
C -0.821528 1.41454 -0.419323 1.581139 0 1.581139 
z
" style="stroke: #17becf"/>
    </defs>
    <g clip-path="url(#p731862a0bc)">
     <use xlink:href="#m6a347f44aa" x="308.744521" y="148.634874" style="fill: #17becf; stroke: #17becf"/>
    </g>
   </g>
   <g id="Path3DCollection_12">
    <g clip-path="url(#p731862a0bc)">
     <use xlink:href="#mcbab504760" x="339.324848" y="200.582546" style="fill: #d62728; stroke: #d62728"/>
    </g>
   </g>
   <g id="Path3DCollection_13">
    <defs>
     <path id="m66b75e8010" d="M 0 1.581139 
C 0.419323 1.581139 0.821528 1.41454 1.118034 1.118034 
C 1.41454 0.821528 1.581139 0.419323 1.581139 0 
C 1.581139 -0.419323 1.41454 -0.821528 1.118034 -1.118034 
C 0.821528 -1.41454 0.419323 -1.581139 0 -1.581139 
C -0.419323 -1.581139 -0.821528 -1.41454 -1.118034 -1.118034 
C -1.41454 -0.821528 -1.581139 -0.419323 -1.581139 0 
C -1.581139 0.419323 -1.41454 0.821528 -1.118034 1.118034 
C -0.821528 1.41454 -0.419323 1.581139 0 1.581139 
z
" style="stroke: #9467bd"/>
    </defs>
    <g clip-path="url(#p731862a0bc)">
     <use xlink:href="#m66b75e8010" x="219.399954" y="139.999606" style="fill: #9467bd; stroke: #9467bd"/>
    </g>
   </g>
   <g id="Path3DCollection_14">
    <defs>
     <path id="m1c4f79a17c" d="M 0 1.581139 
C 0.419323 1.581139 0.821528 1.41454 1.118034 1.118034 
C 1.41454 0.821528 1.581139 0.419323 1.581139 0 
C 1.581139 -0.419323 1.41454 -0.821528 1.118034 -1.118034 
C 0.821528 -1.41454 0.419323 -1.581139 0 -1.581139 
C -0.419323 -1.581139 -0.821528 -1.41454 -1.118034 -1.118034 
C -1.41454 -0.821528 -1.581139 -0.419323 -1.581139 0 
C -1.581139 0.419323 -1.41454 0.821528 -1.118034 1.118034 
C -0.821528 1.41454 -0.419323 1.581139 0 1.581139 
z
" style="stroke: #e377c2"/>
    </defs>
    <g clip-path="url(#p731862a0bc)">
     <use xlink:href="#m1c4f79a17c" x="259.126294" y="139.385819" style="fill: #e377c2; stroke: #e377c2"/>
    </g>
   </g>
   <g id="Path3DCollection_15">
    <g clip-path="url(#p731862a0bc)">
     <use xlink:href="#mcbab504760" x="130.170555" y="184.036518" style="fill: #d62728; stroke: #d62728"/>
    </g>
   </g>
   <g id="Path3DCollection_16">
    <g clip-path="url(#p731862a0bc)">
     <use xlink:href="#m3156c6e11e" x="180.009854" y="183.278998" style="fill: #8c564b; stroke: #8c564b"/>
    </g>
   </g>
   <g id="Path3DCollection_17">
    <g clip-path="url(#p731862a0bc)">
     <use xlink:href="#m5fb7abed03" x="299.743576" y="181.459136" style="fill: #1f77b4; stroke: #1f77b4"/>
    </g>
   </g>
   <g id="Path3DCollection_18">
    <g clip-path="url(#p731862a0bc)">
     <use xlink:href="#mf9bb557bfb" x="349.682443" y="180.700103" style="fill: #2ca02c; stroke: #2ca02c"/>
    </g>
   </g>
   <g id="Path3DCollection_19">
    <g clip-path="url(#p731862a0bc)">
     <use xlink:href="#mabdbc7ea02" x="219.625977" y="172.707189" style="fill: #7f7f7f; stroke: #7f7f7f"/>
    </g>
   </g>
   <g id="Path3DCollection_20">
    <g clip-path="url(#p731862a0bc)">
     <use xlink:href="#m6a347f44aa" x="259.691149" y="172.095878" style="fill: #17becf; stroke: #17becf"/>
    </g>
   </g>
   <g id="Path3DCollection_21">
    <g clip-path="url(#p731862a0bc)">
     <use xlink:href="#m66b75e8010" x="169.098838" y="163.434189" style="fill: #9467bd; stroke: #9467bd"/>
    </g>
   </g>
   <g id="Path3DCollection_22">
    <g clip-path="url(#p731862a0bc)">
     <use xlink:href="#m056ddd951d" x="309.869912" y="161.277996" style="fill: #ff7f0e; stroke: #ff7f0e"/>
    </g>
   </g>
   <g id="Path3DCollection_23">
    <g clip-path="url(#p731862a0bc)">
     <use xlink:href="#m1c4f79a17c" x="219.066775" y="152.543786" style="fill: #e377c2; stroke: #e377c2"/>
    </g>
   </g>
   <g id="Path3DCollection_24">
    <g clip-path="url(#p731862a0bc)">
     <use xlink:href="#mdbbc70f757" x="259.44341" y="151.922931" style="fill: #bcbd22; stroke: #bcbd22"/>
    </g>
   </g>
  </g>
 </g>
 <defs>
  <clipPath id="p731862a0bc">
   <rect x="103.104" y="41.472" width="266.112" height="266.112"/>
  </clipPath>
 </defs>
</svg>
