<?xml version="1.0" encoding="utf-8" standalone="no"?>
<!DOCTYPE svg PUBLIC "-//W3C//DTD SVG 1.1//EN"
  "http://www.w3.org/Graphics/SVG/1.1/DTD/svg11.dtd">
<svg xmlns:xlink="http://www.w3.org/1999/xlink" width="460.8pt" height="345.6pt" viewBox="0 0 460.8 345.6" xmlns="http://www.w3.org/2000/svg" version="1.1">
 <metadata>
  <rdf:RDF xmlns:dc="http://purl.org/dc/elements/1.1/" xmlns:cc="http://creativecommons.org/ns#" xmlns:rdf="http://www.w3.org/1999/02/22-rdf-syntax-ns#">
   <cc:Work>
    <dc:type rdf:resource="http://purl.org/dc/dcmitype/StillImage"/>
    <dc:date>2022-07-12T18:34:27.606260</dc:date>
    <dc:format>image/svg+xml</dc:format>
    <dc:creator>
     <cc:Agent>
      <dc:title>Matplotlib v3.5.1, https://matplotlib.org/</dc:title>
     </cc:Agent>
    </dc:creator>
   </cc:Work>
  </rdf:RDF>
 </metadata>
 <defs>
  <style type="text/css">*{stroke-linejoin: round; stroke-linecap: butt}</style>
 </defs>
 <g id="figure_1">
  <g id="patch_1">
   <path d="M 0 345.6 
L 460.8 345.6 
L 460.8 0 
L 0 0 
z
" style="fill: #d6bea9"/>
  </g>
  <g id="patch_2">
   <path d="M 103.104 307.584 
L 369.216 307.584 
L 369.216 41.472 
L 103.104 41.472 
z
" style="fill: #d6bea9"/>
  </g>
  <g id="pane3d_1">
   <g id="patch_3">
    <path d="M 346.626842 209.852815 
L 239.756108 120.188431 
L 239.756108 33.274532 
L 357.204613 128.158683 
" style="fill: #f2f2f2; opacity: 0.5; stroke: #ff5b00; stroke-linejoin: miter"/>
   </g>
  </g>
  <g id="pane3d_2">
   <g id="patch_4">
    <path d="M 132.885374 209.852815 
L 239.756108 120.188431 
L 239.756108 33.274532 
L 122.307603 128.158683 
" style="fill: #e6e6e6; opacity: 0.5; stroke: #ff5b00; stroke-linejoin: miter"/>
   </g>
  </g>
  <g id="pane3d_3">
   <g id="patch_5">
    <path d="M 239.756108 306.652299 
L 346.626842 209.852815 
L 239.756108 120.188431 
L 132.885374 209.852815 
" style="fill: #ececec; opacity: 0.5; stroke: #ff5b00; stroke-linejoin: miter"/>
   </g>
  </g>
  <g id="axis3d_1">
   <g id="line2d_1">
    <path d="M 346.626842 209.852815 
L 239.756108 306.652299 
" style="fill: none; stroke: #000000; stroke-width: 0.8; stroke-linecap: square"/>
   </g>
  </g>
  <g id="axis3d_2">
   <g id="line2d_2">
    <path d="M 132.885374 209.852815 
L 239.756108 306.652299 
" style="fill: none; stroke: #000000; stroke-width: 0.8; stroke-linecap: square"/>
   </g>
  </g>
  <g id="axis3d_3">
   <g id="line2d_3">
    <path d="M 132.885374 209.852815 
L 122.307603 128.158683 
" style="fill: none; stroke: #000000; stroke-width: 0.8; stroke-linecap: square"/>
   </g>
  </g>
  <g id="axes_1">
   <g id="line2d_4">
    <path d="M 231.911026 256.185707 
L 195.032481 231.264683 
" clip-path="url(#p764beb4d6f)" style="fill: none; stroke: #ec2997; stroke-width: 0.9; stroke-linecap: square"/>
   </g>
   <g id="line2d_5">
    <path d="M 195.032481 231.264683 
L 181.335545 187.859318 
" clip-path="url(#p764beb4d6f)" style="fill: none; stroke: #ec2997; stroke-width: 0.9; stroke-linecap: square"/>
   </g>
   <g id="line2d_6">
    <path d="M 231.911026 256.185707 
L 181.335545 187.859318 
" clip-path="url(#p764beb4d6f)" style="fill: none; stroke: #ec2997; stroke-width: 0.9; stroke-linecap: square"/>
   </g>
   <g id="line2d_7">
    <path d="M 231.911026 256.185707 
L 217.418779 211.902342 
" clip-path="url(#p764beb4d6f)" style="fill: none; stroke: #ec2997; stroke-width: 0.9; stroke-linecap: square"/>
   </g>
   <g id="line2d_8">
    <path d="M 217.418779 211.902342 
L 181.335545 187.859318 
" clip-path="url(#p764beb4d6f)" style="fill: none; stroke: #ec2997; stroke-width: 0.9; stroke-linecap: square"/>
   </g>
   <g id="line2d_9">
    <path d="M 181.335545 187.859318 
L 187.882957 155.676607 
" clip-path="url(#p764beb4d6f)" style="fill: none; stroke: #ec2997; stroke-width: 0.9; stroke-linecap: square"/>
   </g>
   <g id="line2d_10">
    <path d="M 217.418779 211.902342 
L 219.164856 182.823773 
" clip-path="url(#p764beb4d6f)" style="fill: none; stroke: #ec2997; stroke-width: 0.3; stroke-linecap: square"/>
   </g>
   <g id="line2d_11">
    <path d="M 181.335545 187.859318 
L 219.164856 182.823773 
" clip-path="url(#p764beb4d6f)" style="fill: none; stroke: #ec2997; stroke-width: 0.3; stroke-linecap: square"/>
   </g>
   <g id="line2d_12">
    <path d="M 217.418779 211.902342 
L 187.882957 155.676607 
" clip-path="url(#p764beb4d6f)" style="fill: none; stroke: #ec2997; stroke-width: 0.3; stroke-linecap: square"/>
   </g>
   <g id="line2d_13">
    <path d="M 219.164856 182.823773 
L 187.882957 155.676607 
" clip-path="url(#p764beb4d6f)" style="fill: none; stroke: #ec2997; stroke-width: 0.3; stroke-linecap: square"/>
   </g>
   <g id="line2d_14">
    <path d="M 187.882957 155.676607 
L 205.315056 141.100329 
" clip-path="url(#p764beb4d6f)" style="fill: none; stroke: #ec2997; stroke-width: 0.3; stroke-linecap: square"/>
   </g>
   <g id="line2d_15">
    <path d="M 219.164856 182.823773 
L 236.600803 167.913935 
" clip-path="url(#p764beb4d6f)" style="fill: none; stroke: #ec2997; stroke-width: 0.3; stroke-linecap: square"/>
   </g>
   <g id="line2d_16">
    <path d="M 219.164856 182.823773 
L 205.315056 141.100329 
" clip-path="url(#p764beb4d6f)" style="fill: none; stroke: #ec2997; stroke-width: 0.3; stroke-linecap: square"/>
   </g>
   <g id="line2d_17">
    <path d="M 187.882957 155.676607 
L 236.600803 167.913935 
" clip-path="url(#p764beb4d6f)" style="fill: none; stroke: #ec2997; stroke-width: 0.3; stroke-linecap: square"/>
   </g>
   <g id="line2d_18">
    <path d="M 236.600803 167.913935 
L 205.315056 141.100329 
" clip-path="url(#p764beb4d6f)" style="fill: none; stroke: #ec2997; stroke-width: 0.3; stroke-linecap: square"/>
   </g>
   <g id="line2d_19">
    <path d="M 236.600803 167.913935 
L 269.731547 166.656019 
" clip-path="url(#p764beb4d6f)" style="fill: none; stroke: #ec2997; stroke-width: 0.3; stroke-linecap: square"/>
   </g>
   <g id="line2d_20">
    <path d="M 205.315056 141.100329 
L 242.36306 136.258021 
" clip-path="url(#p764beb4d6f)" style="fill: none; stroke: #ec2997; stroke-width: 0.3; stroke-linecap: square"/>
   </g>
   <g id="line2d_21">
    <path d="M 236.600803 167.913935 
L 242.36306 136.258021 
" clip-path="url(#p764beb4d6f)" style="fill: none; stroke: #ec2997; stroke-width: 0.3; stroke-linecap: square"/>
   </g>
   <g id="line2d_22">
    <path d="M 205.315056 141.100329 
L 269.731547 166.656019 
" clip-path="url(#p764beb4d6f)" style="fill: none; stroke: #ec2997; stroke-width: 0.3; stroke-linecap: square"/>
   </g>
   <g id="line2d_23">
    <path d="M 269.731547 166.656019 
L 242.36306 136.258021 
" clip-path="url(#p764beb4d6f)" style="fill: none; stroke: #ec2997; stroke-width: 0.3; stroke-linecap: square"/>
   </g>
   <g id="line2d_24">
    <path d="M 242.36306 136.258021 
L 290.959144 148.295861 
" clip-path="url(#p764beb4d6f)" style="fill: none; stroke: #ec2997; stroke-width: 0.3; stroke-linecap: square"/>
   </g>
   <g id="line2d_25">
    <path d="M 269.731547 166.656019 
L 319.098446 179.006868 
" clip-path="url(#p764beb4d6f)" style="fill: none; stroke: #ec2997; stroke-width: 0.3; stroke-linecap: square"/>
   </g>
   <g id="line2d_26">
    <path d="M 242.36306 136.258021 
L 319.098446 179.006868 
" clip-path="url(#p764beb4d6f)" style="fill: none; stroke: #ec2997; stroke-width: 0.3; stroke-linecap: square"/>
   </g>
   <g id="line2d_27">
    <path d="M 319.098446 179.006868 
L 290.959144 148.295861 
" clip-path="url(#p764beb4d6f)" style="fill: none; stroke: #ec2997; stroke-width: 0.3; stroke-linecap: square"/>
   </g>
   <g id="line2d_28">
    <path d="M 231.66318 231.573576 
L 193.634197 206.128531 
" clip-path="url(#p764beb4d6f)" style="fill: none; stroke: #ec2997; stroke-width: 0.3; stroke-linecap: square"/>
   </g>
   <g id="line2d_29">
    <path d="M 193.634197 206.128531 
L 179.54232 161.849022 
" clip-path="url(#p764beb4d6f)" style="fill: none; stroke: #ec2997; stroke-width: 0.3; stroke-linecap: square"/>
   </g>
   <g id="line2d_30">
    <path d="M 231.66318 231.573576 
L 179.54232 161.849022 
" clip-path="url(#p764beb4d6f)" style="fill: none; stroke: #ec2997; stroke-width: 0.3; stroke-linecap: square"/>
   </g>
   <g id="line2d_31">
    <path d="M 231.66318 231.573576 
L 216.726083 186.370202 
" clip-path="url(#p764beb4d6f)" style="fill: none; stroke: #ec2997; stroke-width: 0.3; stroke-linecap: square"/>
   </g>
   <g id="line2d_32">
    <path d="M 216.726083 186.370202 
L 179.54232 161.849022 
" clip-path="url(#p764beb4d6f)" style="fill: none; stroke: #ec2997; stroke-width: 0.3; stroke-linecap: square"/>
   </g>
   <g id="line2d_33">
    <path d="M 179.54232 161.849022 
L 186.312604 129.049765 
" clip-path="url(#p764beb4d6f)" style="fill: none; stroke: #ec2997; stroke-width: 0.3; stroke-linecap: square"/>
   </g>
   <g id="line2d_34">
    <path d="M 216.726083 186.370202 
L 218.534166 156.715234 
" clip-path="url(#p764beb4d6f)" style="fill: none; stroke: #ec2997; stroke-width: 0.3; stroke-linecap: square"/>
   </g>
   <g id="line2d_35">
    <path d="M 179.54232 161.849022 
L 218.534166 156.715234 
" clip-path="url(#p764beb4d6f)" style="fill: none; stroke: #ec2997; stroke-width: 0.3; stroke-linecap: square"/>
   </g>
   <g id="line2d_36">
    <path d="M 216.726083 186.370202 
L 186.312604 129.049765 
" clip-path="url(#p764beb4d6f)" style="fill: none; stroke: #ec2997; stroke-width: 0.3; stroke-linecap: square"/>
   </g>
   <g id="line2d_37">
    <path d="M 218.534166 156.715234 
L 186.312604 129.049765 
" clip-path="url(#p764beb4d6f)" style="fill: none; stroke: #ec2997; stroke-width: 0.3; stroke-linecap: square"/>
   </g>
   <g id="line2d_38">
    <path d="M 186.312604 129.049765 
L 204.279005 114.203077 
" clip-path="url(#p764beb4d6f)" style="fill: none; stroke: #ec2997; stroke-width: 0.3; stroke-linecap: square"/>
   </g>
   <g id="line2d_39">
    <path d="M 218.534166 156.715234 
L 236.504776 141.518365 
" clip-path="url(#p764beb4d6f)" style="fill: none; stroke: #ec2997; stroke-width: 0.3; stroke-linecap: square"/>
   </g>
   <g id="line2d_40">
    <path d="M 218.534166 156.715234 
L 204.279005 114.203077 
" clip-path="url(#p764beb4d6f)" style="fill: none; stroke: #ec2997; stroke-width: 0.3; stroke-linecap: square"/>
   </g>
   <g id="line2d_41">
    <path d="M 186.312604 129.049765 
L 236.504776 141.518365 
" clip-path="url(#p764beb4d6f)" style="fill: none; stroke: #ec2997; stroke-width: 0.3; stroke-linecap: square"/>
   </g>
   <g id="line2d_42">
    <path d="M 236.504776 141.518365 
L 204.279005 114.203077 
" clip-path="url(#p764beb4d6f)" style="fill: none; stroke: #ec2997; stroke-width: 0.3; stroke-linecap: square"/>
   </g>
   <g id="line2d_43">
    <path d="M 236.504776 141.518365 
L 270.643307 140.236497 
" clip-path="url(#p764beb4d6f)" style="fill: none; stroke: #ec2997; stroke-width: 0.3; stroke-linecap: square"/>
   </g>
   <g id="line2d_44">
    <path d="M 204.279005 114.203077 
L 242.441317 109.272157 
" clip-path="url(#p764beb4d6f)" style="fill: none; stroke: #ec2997; stroke-width: 0.3; stroke-linecap: square"/>
   </g>
   <g id="line2d_45">
    <path d="M 236.504776 141.518365 
L 242.441317 109.272157 
" clip-path="url(#p764beb4d6f)" style="fill: none; stroke: #ec2997; stroke-width: 0.3; stroke-linecap: square"/>
   </g>
   <g id="line2d_46">
    <path d="M 204.279005 114.203077 
L 270.643307 140.236497 
" clip-path="url(#p764beb4d6f)" style="fill: none; stroke: #ec2997; stroke-width: 0.3; stroke-linecap: square"/>
   </g>
   <g id="line2d_47">
    <path d="M 270.643307 140.236497 
L 242.441317 109.272157 
" clip-path="url(#p764beb4d6f)" style="fill: none; stroke: #ec2997; stroke-width: 0.3; stroke-linecap: square"/>
   </g>
   <g id="line2d_48">
    <path d="M 242.441317 109.272157 
L 292.504256 121.531407 
" clip-path="url(#p764beb4d6f)" style="fill: none; stroke: #ec2997; stroke-width: 0.3; stroke-linecap: square"/>
   </g>
   <g id="line2d_49">
    <path d="M 270.643307 140.236497 
L 321.52465 152.8243 
" clip-path="url(#p764beb4d6f)" style="fill: none; stroke: #ec2997; stroke-width: 0.3; stroke-linecap: square"/>
   </g>
   <g id="line2d_50">
    <path d="M 242.441317 109.272157 
L 321.52465 152.8243 
" clip-path="url(#p764beb4d6f)" style="fill: none; stroke: #ec2997; stroke-width: 0.3; stroke-linecap: square"/>
   </g>
   <g id="line2d_51">
    <path d="M 321.52465 152.8243 
L 292.504256 121.531407 
" clip-path="url(#p764beb4d6f)" style="fill: none; stroke: #ec2997; stroke-width: 0.3; stroke-linecap: square"/>
   </g>
   <g id="line2d_52">
    <path d="M 195.032481 231.264683 
L 193.634197 206.128531 
" clip-path="url(#p764beb4d6f)" style="fill: none; stroke: #ec2997; stroke-width: 0.3; stroke-linecap: square"/>
   </g>
   <g id="line2d_53">
    <path d="M 231.911026 256.185707 
L 231.66318 231.573576 
" clip-path="url(#p764beb4d6f)" style="fill: none; stroke: #ec2997; stroke-width: 0.3; stroke-linecap: square"/>
   </g>
   <g id="line2d_54">
    <path d="M 217.418779 211.902342 
L 216.726083 186.370202 
" clip-path="url(#p764beb4d6f)" style="fill: none; stroke: #ec2997; stroke-width: 0.3; stroke-linecap: square"/>
   </g>
   <g id="line2d_55">
    <path d="M 181.335545 187.859318 
L 179.54232 161.849022 
" clip-path="url(#p764beb4d6f)" style="fill: none; stroke: #ec2997; stroke-width: 0.3; stroke-linecap: square"/>
   </g>
   <g id="line2d_56">
    <path d="M 187.882957 155.676607 
L 186.312604 129.049765 
" clip-path="url(#p764beb4d6f)" style="fill: none; stroke: #ec2997; stroke-width: 0.3; stroke-linecap: square"/>
   </g>
   <g id="line2d_57">
    <path d="M 219.164856 182.823773 
L 218.534166 156.715234 
" clip-path="url(#p764beb4d6f)" style="fill: none; stroke: #ec2997; stroke-width: 0.3; stroke-linecap: square"/>
   </g>
   <g id="line2d_58">
    <path d="M 205.315056 141.100329 
L 204.279005 114.203077 
" clip-path="url(#p764beb4d6f)" style="fill: none; stroke: #ec2997; stroke-width: 0.3; stroke-linecap: square"/>
   </g>
   <g id="line2d_59">
    <path d="M 236.600803 167.913935 
L 236.504776 141.518365 
" clip-path="url(#p764beb4d6f)" style="fill: none; stroke: #ec2997; stroke-width: 0.3; stroke-linecap: square"/>
   </g>
   <g id="line2d_60">
    <path d="M 269.731547 166.656019 
L 270.643307 140.236497 
" clip-path="url(#p764beb4d6f)" style="fill: none; stroke: #ec2997; stroke-width: 0.3; stroke-linecap: square"/>
   </g>
   <g id="line2d_61">
    <path d="M 242.36306 136.258021 
L 242.441317 109.272157 
" clip-path="url(#p764beb4d6f)" style="fill: none; stroke: #ec2997; stroke-width: 0.3; stroke-linecap: square"/>
   </g>
   <g id="line2d_62">
    <path d="M 290.959144 148.295861 
L 292.504256 121.531407 
" clip-path="url(#p764beb4d6f)" style="fill: none; stroke: #ec2997; stroke-width: 0.3; stroke-linecap: square"/>
   </g>
   <g id="line2d_63">
    <path d="M 319.098446 179.006868 
L 321.52465 152.8243 
" clip-path="url(#p764beb4d6f)" style="fill: none; stroke: #ec2997; stroke-width: 0.3; stroke-linecap: square"/>
   </g>
   <g id="line2d_64">
    <path d="M 231.911026 256.185707 
L 179.54232 161.849022 
" clip-path="url(#p764beb4d6f)" style="fill: none; stroke: #ec2997; stroke-width: 0.3; stroke-linecap: square"/>
   </g>
   <g id="line2d_65">
    <path d="M 195.032481 231.264683 
L 216.726083 186.370202 
" clip-path="url(#p764beb4d6f)" style="fill: none; stroke: #ec2997; stroke-width: 0.3; stroke-linecap: square"/>
   </g>
   <g id="line2d_66">
    <path d="M 181.335545 187.859318 
L 218.534166 156.715234 
" clip-path="url(#p764beb4d6f)" style="fill: none; stroke: #ec2997; stroke-width: 0.3; stroke-linecap: square"/>
   </g>
   <g id="line2d_67">
    <path d="M 217.418779 211.902342 
L 186.312604 129.049765 
" clip-path="url(#p764beb4d6f)" style="fill: none; stroke: #ec2997; stroke-width: 0.3; stroke-linecap: square"/>
   </g>
   <g id="line2d_68">
    <path d="M 187.882957 155.676607 
L 236.504776 141.518365 
" clip-path="url(#p764beb4d6f)" style="fill: none; stroke: #ec2997; stroke-width: 0.3; stroke-linecap: square"/>
   </g>
   <g id="line2d_69">
    <path d="M 219.164856 182.823773 
L 204.279005 114.203077 
" clip-path="url(#p764beb4d6f)" style="fill: none; stroke: #ec2997; stroke-width: 0.3; stroke-linecap: square"/>
   </g>
   <g id="line2d_70">
    <path d="M 236.600803 167.913935 
L 242.441317 109.272157 
" clip-path="url(#p764beb4d6f)" style="fill: none; stroke: #ec2997; stroke-width: 0.3; stroke-linecap: square"/>
   </g>
   <g id="line2d_71">
    <path d="M 205.315056 141.100329 
L 270.643307 140.236497 
" clip-path="url(#p764beb4d6f)" style="fill: none; stroke: #ec2997; stroke-width: 0.3; stroke-linecap: square"/>
   </g>
   <g id="line2d_72">
    <path d="M 290.959144 148.295861 
L 270.643307 140.236497 
" clip-path="url(#p764beb4d6f)" style="fill: none; stroke: #ec2997; stroke-width: 0.3; stroke-linecap: square"/>
   </g>
   <g id="line2d_73">
    <path d="M 319.098446 179.006868 
L 242.441317 109.272157 
" clip-path="url(#p764beb4d6f)" style="fill: none; stroke: #ec2997; stroke-width: 0.3; stroke-linecap: square"/>
   </g>
   <g id="Path3DCollection_1">
    <defs>
     <path id="m3eb0367080" d="M 0 1.581139 
C 0.419323 1.581139 0.821528 1.41454 1.118034 1.118034 
C 1.41454 0.821528 1.581139 0.419323 1.581139 0 
C 1.581139 -0.419323 1.41454 -0.821528 1.118034 -1.118034 
C 0.821528 -1.41454 0.419323 -1.581139 0 -1.581139 
C -0.419323 -1.581139 -0.821528 -1.41454 -1.118034 -1.118034 
C -1.41454 -0.821528 -1.581139 -0.419323 -1.581139 0 
C -1.581139 0.419323 -1.41454 0.821528 -1.118034 1.118034 
C -0.821528 1.41454 -0.419323 1.581139 0 1.581139 
z
" style="stroke: #17becf"/>
    </defs>
    <g clip-path="url(#p764beb4d6f)">
     <use xlink:href="#m3eb0367080" x="242.36306" y="136.258021" style="fill: #17becf; stroke: #17becf"/>
    </g>
   </g>
   <g id="text_1">
    <!-- 1 -->
    <g transform="translate(210.712055 233.799613)scale(0.04 -0.04)">
     <defs>
      <path id="DejaVuSans-31" d="M 794 531 
L 1825 531 
L 1825 4091 
L 703 3866 
L 703 4441 
L 1819 4666 
L 2450 4666 
L 2450 531 
L 3481 531 
L 3481 0 
L 794 0 
L 794 531 
z
" transform="scale(0.015625)"/>
     </defs>
     <use xlink:href="#DejaVuSans-31"/>
    </g>
   </g>
   <g id="text_2">
    <!-- 2 -->
    <g transform="translate(186.87165 200.099987)scale(0.04 -0.04)">
     <defs>
      <path id="DejaVuSans-32" d="M 1228 531 
L 3431 531 
L 3431 0 
L 469 0 
L 469 531 
Q 828 903 1448 1529 
Q 2069 2156 2228 2338 
Q 2531 2678 2651 2914 
Q 2772 3150 2772 3378 
Q 2772 3750 2511 3984 
Q 2250 4219 1831 4219 
Q 1534 4219 1204 4116 
Q 875 4013 500 3803 
L 500 4441 
Q 881 4594 1212 4672 
Q 1544 4750 1819 4750 
Q 2544 4750 2975 4387 
Q 3406 4025 3406 3419 
Q 3406 3131 3298 2873 
Q 3191 2616 2906 2266 
Q 2828 2175 2409 1742 
Q 1991 1309 1228 531 
z
" transform="scale(0.015625)"/>
     </defs>
     <use xlink:href="#DejaVuSans-32"/>
    </g>
   </g>
   <g id="text_3">
    <!-- 3 -->
    <g transform="translate(205.252532 212.77497)scale(0.04 -0.04)">
     <defs>
      <path id="DejaVuSans-33" d="M 2597 2516 
Q 3050 2419 3304 2112 
Q 3559 1806 3559 1356 
Q 3559 666 3084 287 
Q 2609 -91 1734 -91 
Q 1441 -91 1130 -33 
Q 819 25 488 141 
L 488 750 
Q 750 597 1062 519 
Q 1375 441 1716 441 
Q 2309 441 2620 675 
Q 2931 909 2931 1356 
Q 2931 1769 2642 2001 
Q 2353 2234 1838 2234 
L 1294 2234 
L 1294 2753 
L 1863 2753 
Q 2328 2753 2575 2939 
Q 2822 3125 2822 3475 
Q 2822 3834 2567 4026 
Q 2313 4219 1838 4219 
Q 1578 4219 1281 4162 
Q 984 4106 628 3988 
L 628 4550 
Q 988 4650 1302 4700 
Q 1616 4750 1894 4750 
Q 2613 4750 3031 4423 
Q 3450 4097 3450 3541 
Q 3450 3153 3228 2886 
Q 3006 2619 2597 2516 
z
" transform="scale(0.015625)"/>
     </defs>
     <use xlink:href="#DejaVuSans-33"/>
    </g>
   </g>
   <g id="text_4">
    <!-- 4 -->
    <g transform="translate(223.826764 225.578118)scale(0.04 -0.04)">
     <defs>
      <path id="DejaVuSans-34" d="M 2419 4116 
L 825 1625 
L 2419 1625 
L 2419 4116 
z
M 2253 4666 
L 3047 4666 
L 3047 1625 
L 3713 1625 
L 3713 1100 
L 3047 1100 
L 3047 0 
L 2419 0 
L 2419 1100 
L 313 1100 
L 313 1709 
L 2253 4666 
z
" transform="scale(0.015625)"/>
     </defs>
     <use xlink:href="#DejaVuSans-34"/>
    </g>
   </g>
   <g id="text_5">
    <!-- 5 -->
    <g transform="translate(199.885786 192.102045)scale(0.04 -0.04)">
     <defs>
      <path id="DejaVuSans-35" d="M 691 4666 
L 3169 4666 
L 3169 4134 
L 1269 4134 
L 1269 2991 
Q 1406 3038 1543 3061 
Q 1681 3084 1819 3084 
Q 2600 3084 3056 2656 
Q 3513 2228 3513 1497 
Q 3513 744 3044 326 
Q 2575 -91 1722 -91 
Q 1428 -91 1123 -41 
Q 819 9 494 109 
L 494 744 
Q 775 591 1075 516 
Q 1375 441 1709 441 
Q 2250 441 2565 725 
Q 2881 1009 2881 1497 
Q 2881 1984 2565 2268 
Q 2250 2553 1709 2553 
Q 1456 2553 1204 2497 
Q 953 2441 691 2322 
L 691 4666 
z
" transform="scale(0.015625)"/>
     </defs>
     <use xlink:href="#DejaVuSans-35"/>
    </g>
   </g>
   <g id="text_6">
    <!-- 6 -->
    <g transform="translate(186.846703 164.87215)scale(0.04 -0.04)">
     <defs>
      <path id="DejaVuSans-36" d="M 2113 2584 
Q 1688 2584 1439 2293 
Q 1191 2003 1191 1497 
Q 1191 994 1439 701 
Q 1688 409 2113 409 
Q 2538 409 2786 701 
Q 3034 994 3034 1497 
Q 3034 2003 2786 2293 
Q 2538 2584 2113 2584 
z
M 3366 4563 
L 3366 3988 
Q 3128 4100 2886 4159 
Q 2644 4219 2406 4219 
Q 1781 4219 1451 3797 
Q 1122 3375 1075 2522 
Q 1259 2794 1537 2939 
Q 1816 3084 2150 3084 
Q 2853 3084 3261 2657 
Q 3669 2231 3669 1497 
Q 3669 778 3244 343 
Q 2819 -91 2113 -91 
Q 1303 -91 875 529 
Q 447 1150 447 2328 
Q 447 3434 972 4092 
Q 1497 4750 2381 4750 
Q 2619 4750 2861 4703 
Q 3103 4656 3366 4563 
z
" transform="scale(0.015625)"/>
     </defs>
     <use xlink:href="#DejaVuSans-36"/>
    </g>
   </g>
   <g id="text_7">
    <!-- 7 -->
    <g transform="translate(220.759494 191.178802)scale(0.04 -0.04)">
     <defs>
      <path id="DejaVuSans-37" d="M 525 4666 
L 3525 4666 
L 3525 4397 
L 1831 0 
L 1172 0 
L 2766 4134 
L 525 4134 
L 525 4666 
z
" transform="scale(0.015625)"/>
     </defs>
     <use xlink:href="#DejaVuSans-37"/>
    </g>
   </g>
   <g id="text_8">
    <!-- 8 -->
    <g transform="translate(202.460576 178.731822)scale(0.04 -0.04)">
     <defs>
      <path id="DejaVuSans-38" d="M 2034 2216 
Q 1584 2216 1326 1975 
Q 1069 1734 1069 1313 
Q 1069 891 1326 650 
Q 1584 409 2034 409 
Q 2484 409 2743 651 
Q 3003 894 3003 1313 
Q 3003 1734 2745 1975 
Q 2488 2216 2034 2216 
z
M 1403 2484 
Q 997 2584 770 2862 
Q 544 3141 544 3541 
Q 544 4100 942 4425 
Q 1341 4750 2034 4750 
Q 2731 4750 3128 4425 
Q 3525 4100 3525 3541 
Q 3525 3141 3298 2862 
Q 3072 2584 2669 2484 
Q 3125 2378 3379 2068 
Q 3634 1759 3634 1313 
Q 3634 634 3220 271 
Q 2806 -91 2034 -91 
Q 1263 -91 848 271 
Q 434 634 434 1313 
Q 434 1759 690 2068 
Q 947 2378 1403 2484 
z
M 1172 3481 
Q 1172 3119 1398 2916 
Q 1625 2713 2034 2713 
Q 2441 2713 2670 2916 
Q 2900 3119 2900 3481 
Q 2900 3844 2670 4047 
Q 2441 4250 2034 4250 
Q 1625 4250 1398 4047 
Q 1172 3844 1172 3481 
z
" transform="scale(0.015625)"/>
     </defs>
     <use xlink:href="#DejaVuSans-38"/>
    </g>
   </g>
   <g id="text_9">
    <!-- 9 -->
    <g transform="translate(204.959098 177.175573)scale(0.04 -0.04)">
     <defs>
      <path id="DejaVuSans-39" d="M 703 97 
L 703 672 
Q 941 559 1184 500 
Q 1428 441 1663 441 
Q 2288 441 2617 861 
Q 2947 1281 2994 2138 
Q 2813 1869 2534 1725 
Q 2256 1581 1919 1581 
Q 1219 1581 811 2004 
Q 403 2428 403 3163 
Q 403 3881 828 4315 
Q 1253 4750 1959 4750 
Q 2769 4750 3195 4129 
Q 3622 3509 3622 2328 
Q 3622 1225 3098 567 
Q 2575 -91 1691 -91 
Q 1453 -91 1209 -44 
Q 966 3 703 97 
z
M 1959 2075 
Q 2384 2075 2632 2365 
Q 2881 2656 2881 3163 
Q 2881 3666 2632 3958 
Q 2384 4250 1959 4250 
Q 1534 4250 1286 3958 
Q 1038 3666 1038 3163 
Q 1038 2656 1286 2365 
Q 1534 2075 1959 2075 
z
" transform="scale(0.015625)"/>
     </defs>
     <use xlink:href="#DejaVuSans-39"/>
    </g>
   </g>
   <g id="text_10">
    <!-- 10 -->
    <g transform="translate(207.490164 163.969596)scale(0.04 -0.04)">
     <defs>
      <path id="DejaVuSans-30" d="M 2034 4250 
Q 1547 4250 1301 3770 
Q 1056 3291 1056 2328 
Q 1056 1369 1301 889 
Q 1547 409 2034 409 
Q 2525 409 2770 889 
Q 3016 1369 3016 2328 
Q 3016 3291 2770 3770 
Q 2525 4250 2034 4250 
z
M 2034 4750 
Q 2819 4750 3233 4129 
Q 3647 3509 3647 2328 
Q 3647 1150 3233 529 
Q 2819 -91 2034 -91 
Q 1250 -91 836 529 
Q 422 1150 422 2328 
Q 422 3509 836 4129 
Q 1250 4750 2034 4750 
z
" transform="scale(0.015625)"/>
     </defs>
     <use xlink:href="#DejaVuSans-31"/>
     <use xlink:href="#DejaVuSans-30" x="63.623047"/>
    </g>
   </g>
   <g id="text_11">
    <!-- 11 -->
    <g transform="translate(201.205803 143.498793)scale(0.04 -0.04)">
     <use xlink:href="#DejaVuSans-31"/>
     <use xlink:href="#DejaVuSans-31" x="63.623047"/>
    </g>
   </g>
   <g id="text_12">
    <!-- 12 -->
    <g transform="translate(232.657598 170.717443)scale(0.04 -0.04)">
     <use xlink:href="#DejaVuSans-31"/>
     <use xlink:href="#DejaVuSans-32" x="63.623047"/>
    </g>
   </g>
   <g id="text_13">
    <!-- 13 -->
    <g transform="translate(216.76173 157.110848)scale(0.04 -0.04)">
     <use xlink:href="#DejaVuSans-31"/>
     <use xlink:href="#DejaVuSans-33" x="63.623047"/>
    </g>
   </g>
   <g id="text_14">
    <!-- 14 -->
    <g transform="translate(216.921892 156.949816)scale(0.04 -0.04)">
     <use xlink:href="#DejaVuSans-31"/>
     <use xlink:href="#DejaVuSans-34" x="63.623047"/>
    </g>
   </g>
   <g id="text_15">
    <!-- 15 -->
    <g transform="translate(226.139267 150.131277)scale(0.04 -0.04)">
     <use xlink:href="#DejaVuSans-31"/>
     <use xlink:href="#DejaVuSans-35" x="63.623047"/>
    </g>
   </g>
   <g id="text_16">
    <!-- 16 -->
    <g transform="translate(257.651536 161.846695)scale(0.04 -0.04)">
     <use xlink:href="#DejaVuSans-31"/>
     <use xlink:href="#DejaVuSans-36" x="63.623047"/>
    </g>
   </g>
   <g id="text_17">
    <!-- 17 -->
    <g transform="translate(227.451405 132.961692)scale(0.04 -0.04)">
     <use xlink:href="#DejaVuSans-31"/>
     <use xlink:href="#DejaVuSans-37" x="63.623047"/>
    </g>
   </g>
   <g id="text_18">
    <!-- 18 -->
    <g transform="translate(243.245602 146.292903)scale(0.04 -0.04)">
     <use xlink:href="#DejaVuSans-31"/>
     <use xlink:href="#DejaVuSans-38" x="63.623047"/>
    </g>
   </g>
   <g id="text_19">
    <!-- 19 -->
    <g transform="translate(241.672723 148.34044)scale(0.04 -0.04)">
     <use xlink:href="#DejaVuSans-31"/>
     <use xlink:href="#DejaVuSans-39" x="63.623047"/>
    </g>
   </g>
   <g id="text_20">
    <!-- 20 -->
    <g transform="translate(258.741078 144.50785)scale(0.04 -0.04)">
     <use xlink:href="#DejaVuSans-32"/>
     <use xlink:href="#DejaVuSans-30" x="63.623047"/>
    </g>
   </g>
   <g id="text_21">
    <!-- 21 -->
    <g transform="translate(266.845198 133.048197)scale(0.04 -0.04)">
     <use xlink:href="#DejaVuSans-32"/>
     <use xlink:href="#DejaVuSans-31" x="63.623047"/>
    </g>
   </g>
   <g id="text_22">
    <!-- 22 -->
    <g transform="translate(296.057223 163.995608)scale(0.04 -0.04)">
     <use xlink:href="#DejaVuSans-32"/>
     <use xlink:href="#DejaVuSans-32" x="63.623047"/>
    </g>
   </g>
   <g id="text_23">
    <!-- 23 -->
    <g transform="translate(281.387786 148.413875)scale(0.04 -0.04)">
     <use xlink:href="#DejaVuSans-32"/>
     <use xlink:href="#DejaVuSans-33" x="63.623047"/>
    </g>
   </g>
   <g id="text_24">
    <!-- 24 -->
    <g transform="translate(304.045665 152.347055)scale(0.04 -0.04)">
     <use xlink:href="#DejaVuSans-32"/>
     <use xlink:href="#DejaVuSans-34" x="63.623047"/>
    </g>
   </g>
   <g id="text_25">
    <!-- 25 -->
    <g transform="translate(209.744962 208.368968)scale(0.04 -0.04)">
     <use xlink:href="#DejaVuSans-32"/>
     <use xlink:href="#DejaVuSans-35" x="63.623047"/>
    </g>
   </g>
   <g id="text_26">
    <!-- 26 -->
    <g transform="translate(185.968793 174.38736)scale(0.04 -0.04)">
     <use xlink:href="#DejaVuSans-32"/>
     <use xlink:href="#DejaVuSans-36" x="63.623047"/>
    </g>
   </g>
   <g id="text_27">
    <!-- 27 -->
    <g transform="translate(204.971418 187.47355)scale(0.04 -0.04)">
     <use xlink:href="#DejaVuSans-32"/>
     <use xlink:href="#DejaVuSans-37" x="63.623047"/>
    </g>
   </g>
   <g id="text_28">
    <!-- 28 -->
    <g transform="translate(224.194088 200.663524)scale(0.04 -0.04)">
     <use xlink:href="#DejaVuSans-32"/>
     <use xlink:href="#DejaVuSans-38" x="63.623047"/>
    </g>
   </g>
   <g id="text_29">
    <!-- 29 -->
    <g transform="translate(200.290952 166.895392)scale(0.04 -0.04)">
     <use xlink:href="#DejaVuSans-32"/>
     <use xlink:href="#DejaVuSans-39" x="63.623047"/>
    </g>
   </g>
   <g id="text_30">
    <!-- 30 -->
    <g transform="translate(186.823495 139.129863)scale(0.04 -0.04)">
     <use xlink:href="#DejaVuSans-33"/>
     <use xlink:href="#DejaVuSans-30" x="63.623047"/>
    </g>
   </g>
   <g id="text_31">
    <!-- 31 -->
    <g transform="translate(221.906209 166.065643)scale(0.04 -0.04)">
     <use xlink:href="#DejaVuSans-33"/>
     <use xlink:href="#DejaVuSans-31" x="63.623047"/>
    </g>
   </g>
   <g id="text_32">
    <!-- 32 -->
    <g transform="translate(202.968642 153.248427)scale(0.04 -0.04)">
     <use xlink:href="#DejaVuSans-33"/>
     <use xlink:href="#DejaVuSans-32" x="63.623047"/>
    </g>
   </g>
   <g id="text_33">
    <!-- 33 -->
    <g transform="translate(205.561448 151.794873)scale(0.04 -0.04)">
     <use xlink:href="#DejaVuSans-33"/>
     <use xlink:href="#DejaVuSans-33" x="63.623047"/>
    </g>
   </g>
   <g id="text_34">
    <!-- 34 -->
    <g transform="translate(208.192426 138.319272)scale(0.04 -0.04)">
     <use xlink:href="#DejaVuSans-33"/>
     <use xlink:href="#DejaVuSans-34" x="63.623047"/>
    </g>
   </g>
   <g id="text_35">
    <!-- 35 -->
    <g transform="translate(201.432015 117.26598)scale(0.04 -0.04)">
     <use xlink:href="#DejaVuSans-33"/>
     <use xlink:href="#DejaVuSans-35" x="63.623047"/>
    </g>
   </g>
   <g id="text_36">
    <!-- 36 -->
    <g transform="translate(233.941132 144.971836)scale(0.04 -0.04)">
     <use xlink:href="#DejaVuSans-33"/>
     <use xlink:href="#DejaVuSans-36" x="63.623047"/>
    </g>
   </g>
   <g id="text_37">
    <!-- 37 -->
    <g transform="translate(217.513365 131.12372)scale(0.04 -0.04)">
     <use xlink:href="#DejaVuSans-33"/>
     <use xlink:href="#DejaVuSans-37" x="63.623047"/>
    </g>
   </g>
   <g id="text_38">
    <!-- 38 -->
    <g transform="translate(217.668546 130.951126)scale(0.04 -0.04)">
     <use xlink:href="#DejaVuSans-33"/>
     <use xlink:href="#DejaVuSans-38" x="63.623047"/>
    </g>
   </g>
   <g id="text_39">
    <!-- 39 -->
    <g transform="translate(226.931723 123.800325)scale(0.04 -0.04)">
     <use xlink:href="#DejaVuSans-33"/>
     <use xlink:href="#DejaVuSans-39" x="63.623047"/>
    </g>
   </g>
   <g id="text_40">
    <!-- 40 -->
    <g transform="translate(259.226041 135.496261)scale(0.04 -0.04)">
     <use xlink:href="#DejaVuSans-34"/>
     <use xlink:href="#DejaVuSans-30" x="63.623047"/>
    </g>
   </g>
   <g id="text_41">
    <!-- 41 -->
    <g transform="translate(227.963034 106.066892)scale(0.04 -0.04)">
     <use xlink:href="#DejaVuSans-34"/>
     <use xlink:href="#DejaVuSans-31" x="63.623047"/>
    </g>
   </g>
   <g id="text_42">
    <!-- 42 -->
    <g transform="translate(244.275785 119.621043)scale(0.04 -0.04)">
     <use xlink:href="#DejaVuSans-34"/>
     <use xlink:href="#DejaVuSans-32" x="63.623047"/>
    </g>
   </g>
   <g id="text_43">
    <!-- 43 -->
    <g transform="translate(242.716377 121.758389)scale(0.04 -0.04)">
     <use xlink:href="#DejaVuSans-34"/>
     <use xlink:href="#DejaVuSans-33" x="63.623047"/>
    </g>
   </g>
   <g id="text_44">
    <!-- 44 -->
    <g transform="translate(260.017305 117.586368)scale(0.04 -0.04)">
     <use xlink:href="#DejaVuSans-34"/>
     <use xlink:href="#DejaVuSans-34" x="63.623047"/>
    </g>
   </g>
   <g id="text_45">
    <!-- 45 -->
    <g transform="translate(268.057679 105.663707)scale(0.04 -0.04)">
     <use xlink:href="#DejaVuSans-34"/>
     <use xlink:href="#DejaVuSans-35" x="63.623047"/>
    </g>
   </g>
   <g id="text_46">
    <!-- 46 -->
    <g transform="translate(298.368796 137.233813)scale(0.04 -0.04)">
     <use xlink:href="#DejaVuSans-34"/>
     <use xlink:href="#DejaVuSans-36" x="63.623047"/>
    </g>
   </g>
   <g id="text_47">
    <!-- 47 -->
    <g transform="translate(283.144036 121.335284)scale(0.04 -0.04)">
     <use xlink:href="#DejaVuSans-34"/>
     <use xlink:href="#DejaVuSans-37" x="63.623047"/>
    </g>
   </g>
   <g id="text_48">
    <!-- 48 -->
    <g transform="translate(306.279376 125.110743)scale(0.04 -0.04)">
     <use xlink:href="#DejaVuSans-34"/>
     <use xlink:href="#DejaVuSans-38" x="63.623047"/>
    </g>
   </g>
   <g id="text_49">
    <!-- 49 -->
    <g transform="translate(191.36086 208.179551)scale(0.04 -0.04)">
     <use xlink:href="#DejaVuSans-34"/>
     <use xlink:href="#DejaVuSans-39" x="63.623047"/>
    </g>
   </g>
   <g id="text_50">
    <!-- 50 -->
    <g transform="translate(229.315626 234.525353)scale(0.04 -0.04)">
     <use xlink:href="#DejaVuSans-35"/>
     <use xlink:href="#DejaVuSans-30" x="63.623047"/>
    </g>
   </g>
   <g id="text_51">
    <!-- 51 -->
    <g transform="translate(218.790307 192.467752)scale(0.04 -0.04)">
     <use xlink:href="#DejaVuSans-35"/>
     <use xlink:href="#DejaVuSans-31" x="63.623047"/>
    </g>
   </g>
   <g id="text_52">
    <!-- 52 -->
    <g transform="translate(181.576895 167.053863)scale(0.04 -0.04)">
     <use xlink:href="#DejaVuSans-35"/>
     <use xlink:href="#DejaVuSans-32" x="63.623047"/>
    </g>
   </g>
   <g id="text_53">
    <!-- 53 -->
    <g transform="translate(192.028715 137.525273)scale(0.04 -0.04)">
     <use xlink:href="#DejaVuSans-35"/>
     <use xlink:href="#DejaVuSans-33" x="63.623047"/>
    </g>
   </g>
   <g id="text_54">
    <!-- 54 -->
    <g transform="translate(223.829174 165.318891)scale(0.04 -0.04)">
     <use xlink:href="#DejaVuSans-35"/>
     <use xlink:href="#DejaVuSans-34" x="63.623047"/>
    </g>
   </g>
   <g id="text_55">
    <!-- 55 -->
    <g transform="translate(210.551208 123.677335)scale(0.04 -0.04)">
     <use xlink:href="#DejaVuSans-35"/>
     <use xlink:href="#DejaVuSans-35" x="63.623047"/>
    </g>
   </g>
   <g id="text_56">
    <!-- 56 -->
    <g transform="translate(242.692456 150.808607)scale(0.04 -0.04)">
     <use xlink:href="#DejaVuSans-35"/>
     <use xlink:href="#DejaVuSans-36" x="63.623047"/>
    </g>
   </g>
   <g id="text_57">
    <!-- 57 -->
    <g transform="translate(274.135604 146.936877)scale(0.04 -0.04)">
     <use xlink:href="#DejaVuSans-35"/>
     <use xlink:href="#DejaVuSans-37" x="63.623047"/>
    </g>
   </g>
   <g id="text_58">
    <!-- 58 -->
    <g transform="translate(244.797777 115.767237)scale(0.04 -0.04)">
     <use xlink:href="#DejaVuSans-35"/>
     <use xlink:href="#DejaVuSans-38" x="63.623047"/>
    </g>
   </g>
   <g id="text_59">
    <!-- 59 -->
    <g transform="translate(290.160603 123.364079)scale(0.04 -0.04)">
     <use xlink:href="#DejaVuSans-35"/>
     <use xlink:href="#DejaVuSans-39" x="63.623047"/>
    </g>
   </g>
   <g id="text_60">
    <!-- 60 -->
    <g transform="translate(320.331164 154.70867)scale(0.04 -0.04)">
     <use xlink:href="#DejaVuSans-36"/>
     <use xlink:href="#DejaVuSans-30" x="63.623047"/>
    </g>
   </g>
   <g id="text_61">
    <!-- 61 -->
    <g transform="translate(205.507378 200.522996)scale(0.04 -0.04)">
     <use xlink:href="#DejaVuSans-36"/>
     <use xlink:href="#DejaVuSans-31" x="63.623047"/>
    </g>
   </g>
   <g id="text_62">
    <!-- 62 -->
    <g transform="translate(205.567644 200.634347)scale(0.04 -0.04)">
     <use xlink:href="#DejaVuSans-36"/>
     <use xlink:href="#DejaVuSans-32" x="63.623047"/>
    </g>
   </g>
   <g id="text_63">
    <!-- 63 -->
    <g transform="translate(202.752469 166.241183)scale(0.04 -0.04)">
     <use xlink:href="#DejaVuSans-36"/>
     <use xlink:href="#DejaVuSans-33" x="63.623047"/>
    </g>
   </g>
   <g id="text_64">
    <!-- 64 -->
    <g transform="translate(205.246403 164.689091)scale(0.04 -0.04)">
     <use xlink:href="#DejaVuSans-36"/>
     <use xlink:href="#DejaVuSans-34" x="63.623047"/>
    </g>
   </g>
   <g id="text_65">
    <!-- 65 -->
    <g transform="translate(217.189699 144.035314)scale(0.04 -0.04)">
     <use xlink:href="#DejaVuSans-36"/>
     <use xlink:href="#DejaVuSans-35" x="63.623047"/>
    </g>
   </g>
   <g id="text_66">
    <!-- 66 -->
    <g transform="translate(216.994466 144.225771)scale(0.04 -0.04)">
     <use xlink:href="#DejaVuSans-36"/>
     <use xlink:href="#DejaVuSans-36" x="63.623047"/>
    </g>
   </g>
   <g id="text_67">
    <!-- 67 -->
    <g transform="translate(243.596167 133.039252)scale(0.04 -0.04)">
     <use xlink:href="#DejaVuSans-36"/>
     <use xlink:href="#DejaVuSans-37" x="63.623047"/>
    </g>
   </g>
   <g id="text_68">
    <!-- 68 -->
    <g transform="translate(242.091958 135.128692)scale(0.04 -0.04)">
     <use xlink:href="#DejaVuSans-36"/>
     <use xlink:href="#DejaVuSans-38" x="63.623047"/>
    </g>
   </g>
   <g id="text_69">
    <!-- 69 -->
    <g transform="translate(282.339052 135.217151)scale(0.04 -0.04)">
     <use xlink:href="#DejaVuSans-36"/>
     <use xlink:href="#DejaVuSans-39" x="63.623047"/>
    </g>
   </g>
   <g id="text_70">
    <!-- 70 -->
    <g transform="translate(282.311319 135.180029)scale(0.04 -0.04)">
     <use xlink:href="#DejaVuSans-37"/>
     <use xlink:href="#DejaVuSans-30" x="63.623047"/>
    </g>
   </g>
   <g id="Path3DCollection_2">
    <defs>
     <path id="m11b628a821" d="M 0 1.581139 
C 0.419323 1.581139 0.821528 1.41454 1.118034 1.118034 
C 1.41454 0.821528 1.581139 0.419323 1.581139 0 
C 1.581139 -0.419323 1.41454 -0.821528 1.118034 -1.118034 
C 0.821528 -1.41454 0.419323 -1.581139 0 -1.581139 
C -0.419323 -1.581139 -0.821528 -1.41454 -1.118034 -1.118034 
C -1.41454 -0.821528 -1.581139 -0.419323 -1.581139 0 
C -1.581139 0.419323 -1.41454 0.821528 -1.118034 1.118034 
C -0.821528 1.41454 -0.419323 1.581139 0 1.581139 
z
" style="stroke: #e377c2"/>
    </defs>
    <g clip-path="url(#p764beb4d6f)">
     <use xlink:href="#m11b628a821" x="205.315056" y="141.100329" style="fill: #e377c2; stroke: #e377c2"/>
    </g>
   </g>
   <g id="Path3DCollection_3">
    <defs>
     <path id="m50118f2e67" d="M 0 1.581139 
C 0.419323 1.581139 0.821528 1.41454 1.118034 1.118034 
C 1.41454 0.821528 1.581139 0.419323 1.581139 0 
C 1.581139 -0.419323 1.41454 -0.821528 1.118034 -1.118034 
C 0.821528 -1.41454 0.419323 -1.581139 0 -1.581139 
C -0.419323 -1.581139 -0.821528 -1.41454 -1.118034 -1.118034 
C -1.41454 -0.821528 -1.581139 -0.419323 -1.581139 0 
C -1.581139 0.419323 -1.41454 0.821528 -1.118034 1.118034 
C -0.821528 1.41454 -0.419323 1.581139 0 1.581139 
z
" style="stroke: #1f77b4"/>
    </defs>
    <g clip-path="url(#p764beb4d6f)">
     <use xlink:href="#m50118f2e67" x="290.959144" y="148.295861" style="fill: #1f77b4; stroke: #1f77b4"/>
    </g>
   </g>
   <g id="Path3DCollection_4">
    <defs>
     <path id="mcfe61f7c2d" d="M 0 1.581139 
C 0.419323 1.581139 0.821528 1.41454 1.118034 1.118034 
C 1.41454 0.821528 1.581139 0.419323 1.581139 0 
C 1.581139 -0.419323 1.41454 -0.821528 1.118034 -1.118034 
C 0.821528 -1.41454 0.419323 -1.581139 0 -1.581139 
C -0.419323 -1.581139 -0.821528 -1.41454 -1.118034 -1.118034 
C -1.41454 -0.821528 -1.581139 -0.419323 -1.581139 0 
C -1.581139 0.419323 -1.41454 0.821528 -1.118034 1.118034 
C -0.821528 1.41454 -0.419323 1.581139 0 1.581139 
z
" style="stroke: #9467bd"/>
    </defs>
    <g clip-path="url(#p764beb4d6f)">
     <use xlink:href="#mcfe61f7c2d" x="187.882957" y="155.676607" style="fill: #9467bd; stroke: #9467bd"/>
    </g>
   </g>
   <g id="Path3DCollection_5">
    <defs>
     <path id="m302bcb1fdd" d="M 0 1.581139 
C 0.419323 1.581139 0.821528 1.41454 1.118034 1.118034 
C 1.41454 0.821528 1.581139 0.419323 1.581139 0 
C 1.581139 -0.419323 1.41454 -0.821528 1.118034 -1.118034 
C 0.821528 -1.41454 0.419323 -1.581139 0 -1.581139 
C -0.419323 -1.581139 -0.821528 -1.41454 -1.118034 -1.118034 
C -1.41454 -0.821528 -1.581139 -0.419323 -1.581139 0 
C -1.581139 0.419323 -1.41454 0.821528 -1.118034 1.118034 
C -0.821528 1.41454 -0.419323 1.581139 0 1.581139 
z
" style="stroke: #bcbd22"/>
    </defs>
    <g clip-path="url(#p764beb4d6f)">
     <use xlink:href="#m302bcb1fdd" x="269.731547" y="166.656019" style="fill: #bcbd22; stroke: #bcbd22"/>
    </g>
   </g>
   <g id="Path3DCollection_6">
    <defs>
     <path id="m4cdbb742c1" d="M 0 1.581139 
C 0.419323 1.581139 0.821528 1.41454 1.118034 1.118034 
C 1.41454 0.821528 1.581139 0.419323 1.581139 0 
C 1.581139 -0.419323 1.41454 -0.821528 1.118034 -1.118034 
C 0.821528 -1.41454 0.419323 -1.581139 0 -1.581139 
C -0.419323 -1.581139 -0.821528 -1.41454 -1.118034 -1.118034 
C -1.41454 -0.821528 -1.581139 -0.419323 -1.581139 0 
C -1.581139 0.419323 -1.41454 0.821528 -1.118034 1.118034 
C -0.821528 1.41454 -0.419323 1.581139 0 1.581139 
z
" style="stroke: #7f7f7f"/>
    </defs>
    <g clip-path="url(#p764beb4d6f)">
     <use xlink:href="#m4cdbb742c1" x="236.600803" y="167.913935" style="fill: #7f7f7f; stroke: #7f7f7f"/>
    </g>
   </g>
   <g id="Path3DCollection_7">
    <defs>
     <path id="m0d376b75a6" d="M 0 1.581139 
C 0.419323 1.581139 0.821528 1.41454 1.118034 1.118034 
C 1.41454 0.821528 1.581139 0.419323 1.581139 0 
C 1.581139 -0.419323 1.41454 -0.821528 1.118034 -1.118034 
C 0.821528 -1.41454 0.419323 -1.581139 0 -1.581139 
C -0.419323 -1.581139 -0.821528 -1.41454 -1.118034 -1.118034 
C -1.41454 -0.821528 -1.581139 -0.419323 -1.581139 0 
C -1.581139 0.419323 -1.41454 0.821528 -1.118034 1.118034 
C -0.821528 1.41454 -0.419323 1.581139 0 1.581139 
z
" style="stroke: #ff7f0e"/>
    </defs>
    <g clip-path="url(#p764beb4d6f)">
     <use xlink:href="#m0d376b75a6" x="319.098446" y="179.006868" style="fill: #ff7f0e; stroke: #ff7f0e"/>
    </g>
   </g>
   <g id="Path3DCollection_8">
    <defs>
     <path id="m21acfee849" d="M 0 1.581139 
C 0.419323 1.581139 0.821528 1.41454 1.118034 1.118034 
C 1.41454 0.821528 1.581139 0.419323 1.581139 0 
C 1.581139 -0.419323 1.41454 -0.821528 1.118034 -1.118034 
C 0.821528 -1.41454 0.419323 -1.581139 0 -1.581139 
C -0.419323 -1.581139 -0.821528 -1.41454 -1.118034 -1.118034 
C -1.41454 -0.821528 -1.581139 -0.419323 -1.581139 0 
C -1.581139 0.419323 -1.41454 0.821528 -1.118034 1.118034 
C -0.821528 1.41454 -0.419323 1.581139 0 1.581139 
z
" style="stroke: #8c564b"/>
    </defs>
    <g clip-path="url(#p764beb4d6f)">
     <use xlink:href="#m21acfee849" x="219.164856" y="182.823773" style="fill: #8c564b; stroke: #8c564b"/>
    </g>
   </g>
   <g id="Path3DCollection_9">
    <defs>
     <path id="m8787d07785" d="M 0 1.581139 
C 0.419323 1.581139 0.821528 1.41454 1.118034 1.118034 
C 1.41454 0.821528 1.581139 0.419323 1.581139 0 
C 1.581139 -0.419323 1.41454 -0.821528 1.118034 -1.118034 
C 0.821528 -1.41454 0.419323 -1.581139 0 -1.581139 
C -0.419323 -1.581139 -0.821528 -1.41454 -1.118034 -1.118034 
C -1.41454 -0.821528 -1.581139 -0.419323 -1.581139 0 
C -1.581139 0.419323 -1.41454 0.821528 -1.118034 1.118034 
C -0.821528 1.41454 -0.419323 1.581139 0 1.581139 
z
" style="stroke: #2ca02c"/>
    </defs>
    <g clip-path="url(#p764beb4d6f)">
     <use xlink:href="#m8787d07785" x="181.335545" y="187.859318" style="fill: #2ca02c; stroke: #2ca02c"/>
    </g>
   </g>
   <g id="Path3DCollection_10">
    <g clip-path="url(#p764beb4d6f)">
     <use xlink:href="#m0d376b75a6" x="242.441317" y="109.272157" style="fill: #ff7f0e; stroke: #ff7f0e"/>
    </g>
   </g>
   <g id="Path3DCollection_11">
    <defs>
     <path id="mc00d5c9b22" d="M 0 1.581139 
C 0.419323 1.581139 0.821528 1.41454 1.118034 1.118034 
C 1.41454 0.821528 1.581139 0.419323 1.581139 0 
C 1.581139 -0.419323 1.41454 -0.821528 1.118034 -1.118034 
C 0.821528 -1.41454 0.419323 -1.581139 0 -1.581139 
C -0.419323 -1.581139 -0.821528 -1.41454 -1.118034 -1.118034 
C -1.41454 -0.821528 -1.581139 -0.419323 -1.581139 0 
C -1.581139 0.419323 -1.41454 0.821528 -1.118034 1.118034 
C -0.821528 1.41454 -0.419323 1.581139 0 1.581139 
z
" style="stroke: #d62728"/>
    </defs>
    <g clip-path="url(#p764beb4d6f)">
     <use xlink:href="#mc00d5c9b22" x="217.418779" y="211.902342" style="fill: #d62728; stroke: #d62728"/>
    </g>
   </g>
   <g id="Path3DCollection_12">
    <g clip-path="url(#p764beb4d6f)">
     <use xlink:href="#m302bcb1fdd" x="204.279005" y="114.203077" style="fill: #bcbd22; stroke: #bcbd22"/>
    </g>
   </g>
   <g id="Path3DCollection_13">
    <g clip-path="url(#p764beb4d6f)">
     <use xlink:href="#m8787d07785" x="292.504256" y="121.531407" style="fill: #2ca02c; stroke: #2ca02c"/>
    </g>
   </g>
   <g id="Path3DCollection_14">
    <g clip-path="url(#p764beb4d6f)">
     <use xlink:href="#m11b628a821" x="186.312604" y="129.049765" style="fill: #e377c2; stroke: #e377c2"/>
    </g>
   </g>
   <g id="Path3DCollection_15">
    <g clip-path="url(#p764beb4d6f)">
     <use xlink:href="#m0d376b75a6" x="195.032481" y="231.264683" style="fill: #ff7f0e; stroke: #ff7f0e"/>
    </g>
   </g>
   <g id="Path3DCollection_16">
    <g clip-path="url(#p764beb4d6f)">
     <use xlink:href="#m50118f2e67" x="270.643307" y="140.236497" style="fill: #1f77b4; stroke: #1f77b4"/>
    </g>
   </g>
   <g id="Path3DCollection_17">
    <g clip-path="url(#p764beb4d6f)">
     <use xlink:href="#m3eb0367080" x="236.504776" y="141.518365" style="fill: #17becf; stroke: #17becf"/>
    </g>
   </g>
   <g id="Path3DCollection_18">
    <g clip-path="url(#p764beb4d6f)">
     <use xlink:href="#mc00d5c9b22" x="321.52465" y="152.8243" style="fill: #d62728; stroke: #d62728"/>
    </g>
   </g>
   <g id="Path3DCollection_19">
    <g clip-path="url(#p764beb4d6f)">
     <use xlink:href="#m50118f2e67" x="231.911026" y="256.185707" style="fill: #1f77b4; stroke: #1f77b4"/>
    </g>
   </g>
   <g id="Path3DCollection_20">
    <g clip-path="url(#p764beb4d6f)">
     <use xlink:href="#m4cdbb742c1" x="218.534166" y="156.715234" style="fill: #7f7f7f; stroke: #7f7f7f"/>
    </g>
   </g>
   <g id="Path3DCollection_21">
    <g clip-path="url(#p764beb4d6f)">
     <use xlink:href="#mcfe61f7c2d" x="179.54232" y="161.849022" style="fill: #9467bd; stroke: #9467bd"/>
    </g>
   </g>
   <g id="Path3DCollection_22">
    <g clip-path="url(#p764beb4d6f)">
     <use xlink:href="#m21acfee849" x="216.726083" y="186.370202" style="fill: #8c564b; stroke: #8c564b"/>
    </g>
   </g>
   <g id="Path3DCollection_23">
    <g clip-path="url(#p764beb4d6f)">
     <use xlink:href="#mc00d5c9b22" x="193.634197" y="206.128531" style="fill: #d62728; stroke: #d62728"/>
    </g>
   </g>
   <g id="Path3DCollection_24">
    <g clip-path="url(#p764beb4d6f)">
     <use xlink:href="#m8787d07785" x="231.66318" y="231.573576" style="fill: #2ca02c; stroke: #2ca02c"/>
    </g>
   </g>
  </g>
 </g>
 <defs>
  <clipPath id="p764beb4d6f">
   <rect x="103.104" y="41.472" width="266.112" height="266.112"/>
  </clipPath>
 </defs>
</svg>
