<?xml version="1.0" encoding="utf-8" standalone="no"?>
<!DOCTYPE svg PUBLIC "-//W3C//DTD SVG 1.1//EN"
  "http://www.w3.org/Graphics/SVG/1.1/DTD/svg11.dtd">
<svg xmlns:xlink="http://www.w3.org/1999/xlink" width="460.8pt" height="345.6pt" viewBox="0 0 460.8 345.6" xmlns="http://www.w3.org/2000/svg" version="1.1">
 <metadata>
  <rdf:RDF xmlns:dc="http://purl.org/dc/elements/1.1/" xmlns:cc="http://creativecommons.org/ns#" xmlns:rdf="http://www.w3.org/1999/02/22-rdf-syntax-ns#">
   <cc:Work>
    <dc:type rdf:resource="http://purl.org/dc/dcmitype/StillImage"/>
    <dc:date>2022-05-24T12:04:05.019549</dc:date>
    <dc:format>image/svg+xml</dc:format>
    <dc:creator>
     <cc:Agent>
      <dc:title>Matplotlib v3.5.1, https://matplotlib.org/</dc:title>
     </cc:Agent>
    </dc:creator>
   </cc:Work>
  </rdf:RDF>
 </metadata>
 <defs>
  <style type="text/css">*{stroke-linejoin: round; stroke-linecap: butt}</style>
 </defs>
 <g id="figure_1">
  <g id="patch_1">
   <path d="M 0 345.6 
L 460.8 345.6 
L 460.8 0 
L 0 0 
z
" style="fill: #d6bea9"/>
  </g>
  <g id="patch_2">
   <path d="M 103.104 307.584 
L 369.216 307.584 
L 369.216 41.472 
L 103.104 41.472 
z
" style="fill: #d6bea9"/>
  </g>
  <g id="pane3d_1">
   <g id="patch_3">
    <path d="M 360.076759 168.472909 
L 303.51508 143.272968 
L 304.266568 106.588886 
L 361.551157 130.642536 
" style="fill: #f2f2f2; opacity: 0.5; stroke: #ff5b00; stroke-linejoin: miter"/>
   </g>
  </g>
  <g id="pane3d_2">
   <g id="patch_4">
    <path d="M 111.344999 213.409817 
L 303.51508 143.272968 
L 304.266568 106.588886 
L 109.664271 173.590568 
" style="fill: #e6e6e6; opacity: 0.5; stroke: #ff5b00; stroke-linejoin: miter"/>
   </g>
  </g>
  <g id="pane3d_3">
   <g id="patch_5">
    <path d="M 165.957254 244.539181 
L 360.076759 168.472909 
L 303.51508 143.272968 
L 111.344999 213.409817 
" style="fill: #ececec; opacity: 0.5; stroke: #ff5b00; stroke-linejoin: miter"/>
   </g>
  </g>
  <g id="axis3d_1">
   <g id="line2d_1">
    <path d="M 360.076759 168.472909 
L 165.957254 244.539181 
" style="fill: none; stroke: #000000; stroke-width: 0.8; stroke-linecap: square"/>
   </g>
   <g id="text_1">
    <!-- x -->
    <g style="fill: #830d0d" transform="translate(275.761245 219.54813)scale(0.1 -0.1)">
     <defs>
      <path id="DejaVuSans-78" d="M 3513 3500 
L 2247 1797 
L 3578 0 
L 2900 0 
L 1881 1375 
L 863 0 
L 184 0 
L 1544 1831 
L 300 3500 
L 978 3500 
L 1906 2253 
L 2834 3500 
L 3513 3500 
z
" transform="scale(0.015625)"/>
     </defs>
     <use xlink:href="#DejaVuSans-78"/>
    </g>
   </g>
   <g id="Line3DCollection_1">
    <path d="M 187.335362 236.162109 
L 132.427899 205.715132 
L 131.038469 166.231419 
" style="fill: none; stroke: #b0b0b0; stroke-width: 0.8"/>
    <path d="M 228.67982 219.961168 
L 173.257815 190.813324 
L 172.415366 151.98533 
" style="fill: none; stroke: #b0b0b0; stroke-width: 0.8"/>
    <path d="M 268.243289 204.458111 
L 212.398658 176.527982 
L 212.059332 138.33589 
" style="fill: none; stroke: #b0b0b0; stroke-width: 0.8"/>
    <path d="M 306.138423 189.608797 
L 249.953116 162.821627 
L 250.077 125.246386 
" style="fill: none; stroke: #b0b0b0; stroke-width: 0.8"/>
    <path d="M 342.46857 175.372727 
L 286.015718 149.659759 
L 286.566431 112.683053 
" style="fill: none; stroke: #b0b0b0; stroke-width: 0.8"/>
   </g>
   <g id="xtick_1">
    <g id="line2d_2">
     <path d="M 186.877305 235.90811 
L 188.252427 236.670634 
" style="fill: none; stroke: #830d0d; stroke-width: 0.8; stroke-linecap: square"/>
    </g>
    <g id="text_2">
     <!-- −10 -->
     <g style="fill: #830d0d" transform="translate(181.605353 249.750739)scale(0.1 -0.1)">
      <defs>
       <path id="DejaVuSans-2212" d="M 678 2272 
L 4684 2272 
L 4684 1741 
L 678 1741 
L 678 2272 
z
" transform="scale(0.015625)"/>
       <path id="DejaVuSans-31" d="M 794 531 
L 1825 531 
L 1825 4091 
L 703 3866 
L 703 4441 
L 1819 4666 
L 2450 4666 
L 2450 531 
L 3481 531 
L 3481 0 
L 794 0 
L 794 531 
z
" transform="scale(0.015625)"/>
       <path id="DejaVuSans-30" d="M 2034 4250 
Q 1547 4250 1301 3770 
Q 1056 3291 1056 2328 
Q 1056 1369 1301 889 
Q 1547 409 2034 409 
Q 2525 409 2770 889 
Q 3016 1369 3016 2328 
Q 3016 3291 2770 3770 
Q 2525 4250 2034 4250 
z
M 2034 4750 
Q 2819 4750 3233 4129 
Q 3647 3509 3647 2328 
Q 3647 1150 3233 529 
Q 2819 -91 2034 -91 
Q 1250 -91 836 529 
Q 422 1150 422 2328 
Q 422 3509 836 4129 
Q 1250 4750 2034 4750 
z
" transform="scale(0.015625)"/>
      </defs>
      <use xlink:href="#DejaVuSans-2212"/>
      <use xlink:href="#DejaVuSans-31" x="83.789062"/>
      <use xlink:href="#DejaVuSans-30" x="147.412109"/>
     </g>
    </g>
   </g>
   <g id="xtick_2">
    <g id="line2d_3">
     <path d="M 228.217887 219.718226 
L 229.604621 220.447544 
" style="fill: none; stroke: #830d0d; stroke-width: 0.8; stroke-linecap: square"/>
    </g>
    <g id="text_3">
     <!-- −5 -->
     <g style="fill: #830d0d" transform="translate(226.124947 233.378317)scale(0.1 -0.1)">
      <defs>
       <path id="DejaVuSans-35" d="M 691 4666 
L 3169 4666 
L 3169 4134 
L 1269 4134 
L 1269 2991 
Q 1406 3038 1543 3061 
Q 1681 3084 1819 3084 
Q 2600 3084 3056 2656 
Q 3513 2228 3513 1497 
Q 3513 744 3044 326 
Q 2575 -91 1722 -91 
Q 1428 -91 1123 -41 
Q 819 9 494 109 
L 494 744 
Q 775 591 1075 516 
Q 1375 441 1709 441 
Q 2250 441 2565 725 
Q 2881 1009 2881 1497 
Q 2881 1984 2565 2268 
Q 2250 2553 1709 2553 
Q 1456 2553 1204 2497 
Q 953 2441 691 2322 
L 691 4666 
z
" transform="scale(0.015625)"/>
      </defs>
      <use xlink:href="#DejaVuSans-2212"/>
      <use xlink:href="#DejaVuSans-35" x="83.789062"/>
     </g>
    </g>
   </g>
   <g id="xtick_3">
    <g id="line2d_4">
     <path d="M 267.778237 204.22552 
L 269.174316 204.923755 
" style="fill: none; stroke: #830d0d; stroke-width: 0.8; stroke-linecap: square"/>
    </g>
    <g id="text_4">
     <!-- 0 -->
     <g style="fill: #830d0d" transform="translate(269.868183 217.712841)scale(0.1 -0.1)">
      <use xlink:href="#DejaVuSans-30"/>
     </g>
    </g>
   </g>
   <g id="xtick_4">
    <g id="line2d_5">
     <path d="M 305.670922 189.385909 
L 307.074334 190.055006 
" style="fill: none; stroke: #830d0d; stroke-width: 0.8; stroke-linecap: square"/>
    </g>
    <g id="text_5">
     <!-- 5 -->
     <g style="fill: #830d0d" transform="translate(307.74979 202.709491)scale(0.1 -0.1)">
      <use xlink:href="#DejaVuSans-35"/>
     </g>
    </g>
   </g>
   <g id="xtick_5">
    <g id="line2d_6">
     <path d="M 341.999216 175.158947 
L 343.40817 175.800693 
" style="fill: none; stroke: #830d0d; stroke-width: 0.8; stroke-linecap: square"/>
    </g>
    <g id="text_6">
     <!-- 10 -->
     <g style="fill: #830d0d" transform="translate(340.882158 188.327157)scale(0.1 -0.1)">
      <use xlink:href="#DejaVuSans-31"/>
      <use xlink:href="#DejaVuSans-30" x="63.623047"/>
     </g>
    </g>
   </g>
  </g>
  <g id="axis3d_2">
   <g id="line2d_7">
    <path d="M 111.344999 213.409817 
L 165.957254 244.539181 
" style="fill: none; stroke: #000000; stroke-width: 0.8; stroke-linecap: square"/>
   </g>
   <g id="text_7">
    <!-- y -->
    <g style="fill: #830d0d" transform="translate(95.929529 253.636417)scale(0.1 -0.1)">
     <defs>
      <path id="DejaVuSans-79" d="M 2059 -325 
Q 1816 -950 1584 -1140 
Q 1353 -1331 966 -1331 
L 506 -1331 
L 506 -850 
L 844 -850 
Q 1081 -850 1212 -737 
Q 1344 -625 1503 -206 
L 1606 56 
L 191 3500 
L 800 3500 
L 1894 763 
L 2988 3500 
L 3597 3500 
L 2059 -325 
z
" transform="scale(0.015625)"/>
     </defs>
     <use xlink:href="#DejaVuSans-79"/>
    </g>
   </g>
   <g id="Line3DCollection_2">
    <path d="M 360.360965 130.142777 
L 358.902118 167.949571 
L 164.818332 243.889987 
" style="fill: none; stroke: #b0b0b0; stroke-width: 0.8"/>
    <path d="M 352.250204 126.73709 
L 350.896734 164.38293 
L 157.061778 239.468697 
" style="fill: none; stroke: #b0b0b0; stroke-width: 0.8"/>
    <path d="M 344.226668 123.368028 
L 342.976411 160.854186 
L 149.396902 235.099665 
" style="fill: none; stroke: #b0b0b0; stroke-width: 0.8"/>
    <path d="M 336.288956 120.035004 
L 335.139799 157.362738 
L 141.822088 230.781969 
" style="fill: none; stroke: #b0b0b0; stroke-width: 0.8"/>
    <path d="M 328.4357 116.737442 
L 327.38558 153.907998 
L 134.335759 226.51471 
" style="fill: none; stroke: #b0b0b0; stroke-width: 0.8"/>
    <path d="M 320.665557 113.474779 
L 319.712459 150.489391 
L 126.936374 222.297008 
" style="fill: none; stroke: #b0b0b0; stroke-width: 0.8"/>
    <path d="M 312.977216 110.246464 
L 312.119172 147.106352 
L 119.622425 218.128007 
" style="fill: none; stroke: #b0b0b0; stroke-width: 0.8"/>
    <path d="M 305.369391 107.051959 
L 304.604479 143.758329 
L 112.392442 214.006867 
" style="fill: none; stroke: #b0b0b0; stroke-width: 0.8"/>
   </g>
   <g id="xtick_6">
    <g id="line2d_8">
     <path d="M 166.546002 243.21399 
L 161.353543 245.245677 
" style="fill: none; stroke: #830d0d; stroke-width: 0.8; stroke-linecap: square"/>
    </g>
    <g id="text_8">
     <!-- −1 -->
     <g style="fill: #830d0d" transform="translate(139.446306 261.959572)scale(0.1 -0.1)">
      <use xlink:href="#DejaVuSans-2212"/>
      <use xlink:href="#DejaVuSans-31" x="83.789062"/>
     </g>
    </g>
   </g>
   <g id="xtick_7">
    <g id="line2d_9">
     <path d="M 158.786195 238.80071 
L 153.603568 240.808302 
" style="fill: none; stroke: #830d0d; stroke-width: 0.8; stroke-linecap: square"/>
    </g>
    <g id="text_9">
     <!-- 0 -->
     <g style="fill: #830d0d" transform="translate(135.922831 257.438651)scale(0.1 -0.1)">
      <use xlink:href="#DejaVuSans-30"/>
     </g>
    </g>
   </g>
   <g id="xtick_8">
    <g id="line2d_10">
     <path d="M 151.118022 234.439546 
L 145.94536 236.423469 
" style="fill: none; stroke: #830d0d; stroke-width: 0.8; stroke-linecap: square"/>
    </g>
    <g id="text_10">
     <!-- 1 -->
     <g style="fill: #830d0d" transform="translate(128.301435 252.971608)scale(0.1 -0.1)">
      <use xlink:href="#DejaVuSans-31"/>
     </g>
    </g>
   </g>
   <g id="xtick_9">
    <g id="line2d_11">
     <path d="M 143.53987 230.129581 
L 138.377297 232.09025 
" style="fill: none; stroke: #830d0d; stroke-width: 0.8; stroke-linecap: square"/>
    </g>
    <g id="text_11">
     <!-- 2 -->
     <g style="fill: #830d0d" transform="translate(120.770328 248.557486)scale(0.1 -0.1)">
      <defs>
       <path id="DejaVuSans-32" d="M 1228 531 
L 3431 531 
L 3431 0 
L 469 0 
L 469 531 
Q 828 903 1448 1529 
Q 2069 2156 2228 2338 
Q 2531 2678 2651 2914 
Q 2772 3150 2772 3378 
Q 2772 3750 2511 3984 
Q 2250 4219 1831 4219 
Q 1534 4219 1204 4116 
Q 875 4013 500 3803 
L 500 4441 
Q 881 4594 1212 4672 
Q 1544 4750 1819 4750 
Q 2544 4750 2975 4387 
Q 3406 4025 3406 3419 
Q 3406 3131 3298 2873 
Q 3191 2616 2906 2266 
Q 2828 2175 2409 1742 
Q 1991 1309 1228 531 
z
" transform="scale(0.015625)"/>
      </defs>
      <use xlink:href="#DejaVuSans-32"/>
     </g>
    </g>
   </g>
   <g id="xtick_10">
    <g id="line2d_12">
     <path d="M 136.050163 225.869916 
L 130.897796 227.807739 
" style="fill: none; stroke: #830d0d; stroke-width: 0.8; stroke-linecap: square"/>
    </g>
    <g id="text_12">
     <!-- 3 -->
     <g style="fill: #830d0d" transform="translate(113.327916 244.195349)scale(0.1 -0.1)">
      <defs>
       <path id="DejaVuSans-33" d="M 2597 2516 
Q 3050 2419 3304 2112 
Q 3559 1806 3559 1356 
Q 3559 666 3084 287 
Q 2609 -91 1734 -91 
Q 1441 -91 1130 -33 
Q 819 25 488 141 
L 488 750 
Q 750 597 1062 519 
Q 1375 441 1716 441 
Q 2309 441 2620 675 
Q 2931 909 2931 1356 
Q 2931 1769 2642 2001 
Q 2353 2234 1838 2234 
L 1294 2234 
L 1294 2753 
L 1863 2753 
Q 2328 2753 2575 2939 
Q 2822 3125 2822 3475 
Q 2822 3834 2567 4026 
Q 2313 4219 1838 4219 
Q 1578 4219 1281 4162 
Q 984 4106 628 3988 
L 628 4550 
Q 988 4650 1302 4700 
Q 1616 4750 1894 4750 
Q 2613 4750 3031 4423 
Q 3450 4097 3450 3541 
Q 3450 3153 3228 2886 
Q 3006 2619 2597 2516 
z
" transform="scale(0.015625)"/>
      </defs>
      <use xlink:href="#DejaVuSans-33"/>
     </g>
    </g>
   </g>
   <g id="xtick_11">
    <g id="line2d_13">
     <path d="M 128.647361 221.659678 
L 123.505314 223.575052 
" style="fill: none; stroke: #830d0d; stroke-width: 0.8; stroke-linecap: square"/>
    </g>
    <g id="text_13">
     <!-- 4 -->
     <g style="fill: #830d0d" transform="translate(105.972641 239.884284)scale(0.1 -0.1)">
      <defs>
       <path id="DejaVuSans-34" d="M 2419 4116 
L 825 1625 
L 2419 1625 
L 2419 4116 
z
M 2253 4666 
L 3047 4666 
L 3047 1625 
L 3713 1625 
L 3713 1100 
L 3047 1100 
L 3047 0 
L 2419 0 
L 2419 1100 
L 313 1100 
L 313 1709 
L 2253 4666 
z
" transform="scale(0.015625)"/>
      </defs>
      <use xlink:href="#DejaVuSans-34"/>
     </g>
    </g>
   </g>
   <g id="xtick_12">
    <g id="line2d_14">
     <path d="M 121.329961 217.498012 
L 116.198339 219.391323 
" style="fill: none; stroke: #830d0d; stroke-width: 0.8; stroke-linecap: square"/>
    </g>
    <g id="text_14">
     <!-- 5 -->
     <g style="fill: #830d0d" transform="translate(98.702981 235.6234)scale(0.1 -0.1)">
      <use xlink:href="#DejaVuSans-35"/>
     </g>
    </g>
   </g>
   <g id="xtick_13">
    <g id="line2d_15">
     <path d="M 114.096493 213.38408 
L 108.975396 215.255709 
" style="fill: none; stroke: #830d0d; stroke-width: 0.8; stroke-linecap: square"/>
    </g>
    <g id="text_15">
     <!-- 6 -->
     <g style="fill: #830d0d" transform="translate(91.51745 231.411826)scale(0.1 -0.1)">
      <defs>
       <path id="DejaVuSans-36" d="M 2113 2584 
Q 1688 2584 1439 2293 
Q 1191 2003 1191 1497 
Q 1191 994 1439 701 
Q 1688 409 2113 409 
Q 2538 409 2786 701 
Q 3034 994 3034 1497 
Q 3034 2003 2786 2293 
Q 2538 2584 2113 2584 
z
M 3366 4563 
L 3366 3988 
Q 3128 4100 2886 4159 
Q 2644 4219 2406 4219 
Q 1781 4219 1451 3797 
Q 1122 3375 1075 2522 
Q 1259 2794 1537 2939 
Q 1816 3084 2150 3084 
Q 2853 3084 3261 2657 
Q 3669 2231 3669 1497 
Q 3669 778 3244 343 
Q 2819 -91 2113 -91 
Q 1303 -91 875 529 
Q 447 1150 447 2328 
Q 447 3434 972 4092 
Q 1497 4750 2381 4750 
Q 2619 4750 2861 4703 
Q 3103 4656 3366 4563 
z
" transform="scale(0.015625)"/>
      </defs>
      <use xlink:href="#DejaVuSans-36"/>
     </g>
    </g>
   </g>
  </g>
  <g id="axis3d_3">
   <g id="line2d_16">
    <path d="M 111.344999 213.409817 
L 109.664271 173.590568 
" style="fill: none; stroke: #000000; stroke-width: 0.8; stroke-linecap: square"/>
   </g>
   <g id="text_16">
    <!-- z -->
    <g style="fill: #830d0d" transform="translate(59.086863 204.958934)scale(0.1 -0.1)">
     <defs>
      <path id="DejaVuSans-7a" d="M 353 3500 
L 3084 3500 
L 3084 2975 
L 922 459 
L 3084 459 
L 3084 0 
L 275 0 
L 275 525 
L 2438 3041 
L 353 3041 
L 353 3500 
z
" transform="scale(0.015625)"/>
     </defs>
     <use xlink:href="#DejaVuSans-7a"/>
    </g>
   </g>
   <g id="Line3DCollection_3">
    <path d="M 111.31181 212.623517 
L 303.529939 142.547664 
L 360.105897 167.725279 
" style="fill: none; stroke: #b0b0b0; stroke-width: 0.8"/>
    <path d="M 111.04568 206.318461 
L 303.649053 136.733041 
L 360.33951 161.731184 
" style="fill: none; stroke: #b0b0b0; stroke-width: 0.8"/>
    <path d="M 110.778446 199.987223 
L 303.768614 130.896656 
L 360.574032 155.713772 
" style="fill: none; stroke: #b0b0b0; stroke-width: 0.8"/>
    <path d="M 110.510099 193.62964 
L 303.888623 125.038387 
L 360.809469 149.672909 
" style="fill: none; stroke: #b0b0b0; stroke-width: 0.8"/>
    <path d="M 110.240633 187.245547 
L 304.009083 119.158111 
L 361.045824 143.608456 
" style="fill: none; stroke: #b0b0b0; stroke-width: 0.8"/>
    <path d="M 109.970041 180.834778 
L 304.129996 113.255704 
L 361.283104 137.520275 
" style="fill: none; stroke: #b0b0b0; stroke-width: 0.8"/>
    <path d="M 109.698317 174.397165 
L 304.251365 107.33104 
L 361.521315 131.408227 
" style="fill: none; stroke: #b0b0b0; stroke-width: 0.8"/>
   </g>
   <g id="xtick_14">
    <g id="line2d_17">
     <path d="M 113.015819 212.002297 
L 107.894854 213.869218 
" style="fill: none; stroke: #830d0d; stroke-width: 0.8; stroke-linecap: square"/>
    </g>
    <g id="text_17">
     <!-- −1.0 -->
     <g style="fill: #830d0d" transform="translate(77.01526 224.220148)scale(0.1 -0.1)">
      <defs>
       <path id="DejaVuSans-2e" d="M 684 794 
L 1344 794 
L 1344 0 
L 684 0 
L 684 794 
z
" transform="scale(0.015625)"/>
      </defs>
      <use xlink:href="#DejaVuSans-2212"/>
      <use xlink:href="#DejaVuSans-31" x="83.789062"/>
      <use xlink:href="#DejaVuSans-2e" x="147.412109"/>
      <use xlink:href="#DejaVuSans-30" x="179.199219"/>
     </g>
    </g>
   </g>
   <g id="xtick_15">
    <g id="line2d_18">
     <path d="M 112.753449 205.701464 
L 107.621165 207.5557 
" style="fill: none; stroke: #830d0d; stroke-width: 0.8; stroke-linecap: square"/>
    </g>
    <g id="text_18">
     <!-- −0.5 -->
     <g style="fill: #830d0d" transform="translate(76.701472 217.887966)scale(0.1 -0.1)">
      <use xlink:href="#DejaVuSans-2212"/>
      <use xlink:href="#DejaVuSans-30" x="83.789062"/>
      <use xlink:href="#DejaVuSans-2e" x="147.412109"/>
      <use xlink:href="#DejaVuSans-35" x="179.199219"/>
     </g>
    </g>
   </g>
   <g id="xtick_16">
    <g id="line2d_19">
     <path d="M 112.489991 199.374489 
L 107.346339 201.215919 
" style="fill: none; stroke: #830d0d; stroke-width: 0.8; stroke-linecap: square"/>
    </g>
    <g id="text_19">
     <!-- 0.0 -->
     <g style="fill: #830d0d" transform="translate(80.576216 211.529341)scale(0.1 -0.1)">
      <use xlink:href="#DejaVuSans-30"/>
      <use xlink:href="#DejaVuSans-2e" x="63.623047"/>
      <use xlink:href="#DejaVuSans-30" x="95.410156"/>
     </g>
    </g>
   </g>
   <g id="xtick_17">
    <g id="line2d_20">
     <path d="M 112.225438 193.02121 
L 107.070367 194.849711 
" style="fill: none; stroke: #830d0d; stroke-width: 0.8; stroke-linecap: square"/>
    </g>
    <g id="text_20">
     <!-- 0.5 -->
     <g style="fill: #830d0d" transform="translate(80.259799 205.144107)scale(0.1 -0.1)">
      <use xlink:href="#DejaVuSans-30"/>
      <use xlink:href="#DejaVuSans-2e" x="63.623047"/>
      <use xlink:href="#DejaVuSans-35" x="95.410156"/>
     </g>
    </g>
   </g>
   <g id="xtick_18">
    <g id="line2d_21">
     <path d="M 111.959782 186.641463 
L 106.793242 188.456911 
" style="fill: none; stroke: #830d0d; stroke-width: 0.8; stroke-linecap: square"/>
    </g>
    <g id="text_21">
     <!-- 1.0 -->
     <g style="fill: #830d0d" transform="translate(79.942054 198.732097)scale(0.1 -0.1)">
      <use xlink:href="#DejaVuSans-31"/>
      <use xlink:href="#DejaVuSans-2e" x="63.623047"/>
      <use xlink:href="#DejaVuSans-30" x="95.410156"/>
     </g>
    </g>
   </g>
   <g id="xtick_19">
    <g id="line2d_22">
     <path d="M 111.693018 180.235081 
L 106.514957 182.037351 
" style="fill: none; stroke: #830d0d; stroke-width: 0.8; stroke-linecap: square"/>
    </g>
    <g id="text_22">
     <!-- 1.5 -->
     <g style="fill: #830d0d" transform="translate(79.622975 192.293143)scale(0.1 -0.1)">
      <use xlink:href="#DejaVuSans-31"/>
      <use xlink:href="#DejaVuSans-2e" x="63.623047"/>
      <use xlink:href="#DejaVuSans-35" x="95.410156"/>
     </g>
    </g>
   </g>
   <g id="xtick_20">
    <g id="line2d_23">
     <path d="M 111.425137 173.801898 
L 106.235504 175.590862 
" style="fill: none; stroke: #830d0d; stroke-width: 0.8; stroke-linecap: square"/>
    </g>
    <g id="text_23">
     <!-- 2.0 -->
     <g style="fill: #830d0d" transform="translate(79.302551 185.827074)scale(0.1 -0.1)">
      <use xlink:href="#DejaVuSans-32"/>
      <use xlink:href="#DejaVuSans-2e" x="63.623047"/>
      <use xlink:href="#DejaVuSans-30" x="95.410156"/>
     </g>
    </g>
   </g>
  </g>
  <g id="axes_1">
   <g id="line2d_24">
    <path d="M 178.117814 217.526213 
L 154.248918 212.314415 
" clip-path="url(#pfc4d7c1b11)" style="fill: none; stroke: #ec2997; stroke-width: 0.5; stroke-linecap: square"/>
   </g>
   <g id="line2d_25">
    <path d="M 154.248918 212.314415 
L 172.621721 191.868191 
" clip-path="url(#pfc4d7c1b11)" style="fill: none; stroke: #ec2997; stroke-width: 0.5; stroke-linecap: square"/>
   </g>
   <g id="line2d_26">
    <path d="M 178.117814 217.526213 
L 172.621721 191.868191 
" clip-path="url(#pfc4d7c1b11)" style="fill: none; stroke: #ec2997; stroke-width: 0.5; stroke-linecap: square"/>
   </g>
   <g id="line2d_27">
    <path d="M 178.117814 217.526213 
L 195.931022 196.783982 
" clip-path="url(#pfc4d7c1b11)" style="fill: none; stroke: #ec2997; stroke-width: 0.5; stroke-linecap: square"/>
   </g>
   <g id="line2d_28">
    <path d="M 195.931022 196.783982 
L 172.621721 191.868191 
" clip-path="url(#pfc4d7c1b11)" style="fill: none; stroke: #ec2997; stroke-width: 0.5; stroke-linecap: square"/>
   </g>
   <g id="line2d_29">
    <path d="M 172.621721 191.868191 
L 205.246226 173.455297 
" clip-path="url(#pfc4d7c1b11)" style="fill: none; stroke: #ec2997; stroke-width: 0.5; stroke-linecap: square"/>
   </g>
   <g id="line2d_30">
    <path d="M 195.931022 196.783982 
L 220.323884 181.00189 
" clip-path="url(#pfc4d7c1b11)" style="fill: none; stroke: #ec2997; stroke-width: 0.5; stroke-linecap: square"/>
   </g>
   <g id="line2d_31">
    <path d="M 172.621721 191.868191 
L 220.323884 181.00189 
" clip-path="url(#pfc4d7c1b11)" style="fill: none; stroke: #ec2997; stroke-width: 0.5; stroke-linecap: square"/>
   </g>
   <g id="line2d_32">
    <path d="M 195.931022 196.783982 
L 205.246226 173.455297 
" clip-path="url(#pfc4d7c1b11)" style="fill: none; stroke: #ec2997; stroke-width: 0.5; stroke-linecap: square"/>
   </g>
   <g id="line2d_33">
    <path d="M 220.323884 181.00189 
L 205.246226 173.455297 
" clip-path="url(#pfc4d7c1b11)" style="fill: none; stroke: #ec2997; stroke-width: 0.5; stroke-linecap: square"/>
   </g>
   <g id="line2d_34">
    <path d="M 205.246226 173.455297 
L 236.095089 162.290542 
" clip-path="url(#pfc4d7c1b11)" style="fill: none; stroke: #ec2997; stroke-width: 0.5; stroke-linecap: square"/>
   </g>
   <g id="line2d_35">
    <path d="M 220.323884 181.00189 
L 251.259943 169.587571 
" clip-path="url(#pfc4d7c1b11)" style="fill: none; stroke: #ec2997; stroke-width: 0.5; stroke-linecap: square"/>
   </g>
   <g id="line2d_36">
    <path d="M 220.323884 181.00189 
L 236.095089 162.290542 
" clip-path="url(#pfc4d7c1b11)" style="fill: none; stroke: #ec2997; stroke-width: 0.5; stroke-linecap: square"/>
   </g>
   <g id="line2d_37">
    <path d="M 205.246226 173.455297 
L 251.259943 169.587571 
" clip-path="url(#pfc4d7c1b11)" style="fill: none; stroke: #ec2997; stroke-width: 0.5; stroke-linecap: square"/>
   </g>
   <g id="line2d_38">
    <path d="M 251.259943 169.587571 
L 236.095089 162.290542 
" clip-path="url(#pfc4d7c1b11)" style="fill: none; stroke: #ec2997; stroke-width: 0.5; stroke-linecap: square"/>
   </g>
   <g id="line2d_39">
    <path d="M 251.259943 169.587571 
L 288.919481 162.137193 
" clip-path="url(#pfc4d7c1b11)" style="fill: none; stroke: #ec2997; stroke-width: 0.5; stroke-linecap: square"/>
   </g>
   <g id="line2d_40">
    <path d="M 236.095089 162.290542 
L 280.832994 152.326992 
" clip-path="url(#pfc4d7c1b11)" style="fill: none; stroke: #ec2997; stroke-width: 0.5; stroke-linecap: square"/>
   </g>
   <g id="line2d_41">
    <path d="M 251.259943 169.587571 
L 280.832994 152.326992 
" clip-path="url(#pfc4d7c1b11)" style="fill: none; stroke: #ec2997; stroke-width: 0.5; stroke-linecap: square"/>
   </g>
   <g id="line2d_42">
    <path d="M 236.095089 162.290542 
L 288.919481 162.137193 
" clip-path="url(#pfc4d7c1b11)" style="fill: none; stroke: #ec2997; stroke-width: 0.5; stroke-linecap: square"/>
   </g>
   <g id="line2d_43">
    <path d="M 288.919481 162.137193 
L 280.832994 152.326992 
" clip-path="url(#pfc4d7c1b11)" style="fill: none; stroke: #ec2997; stroke-width: 0.5; stroke-linecap: square"/>
   </g>
   <g id="line2d_44">
    <path d="M 280.832994 152.326992 
L 324.99012 148.69755 
" clip-path="url(#pfc4d7c1b11)" style="fill: none; stroke: #ec2997; stroke-width: 0.5; stroke-linecap: square"/>
   </g>
   <g id="line2d_45">
    <path d="M 288.919481 162.137193 
L 333.691424 158.398049 
" clip-path="url(#pfc4d7c1b11)" style="fill: none; stroke: #ec2997; stroke-width: 0.5; stroke-linecap: square"/>
   </g>
   <g id="line2d_46">
    <path d="M 280.832994 152.326992 
L 333.691424 158.398049 
" clip-path="url(#pfc4d7c1b11)" style="fill: none; stroke: #ec2997; stroke-width: 0.5; stroke-linecap: square"/>
   </g>
   <g id="line2d_47">
    <path d="M 333.691424 158.398049 
L 324.99012 148.69755 
" clip-path="url(#pfc4d7c1b11)" style="fill: none; stroke: #ec2997; stroke-width: 0.5; stroke-linecap: square"/>
   </g>
   <g id="line2d_48">
    <path d="M 177.854325 204.53881 
L 153.886061 199.399653 
" clip-path="url(#pfc4d7c1b11)" style="fill: none; stroke: #ec2997; stroke-width: 0.5; stroke-linecap: square"/>
   </g>
   <g id="line2d_49">
    <path d="M 153.886061 199.399653 
L 172.345045 179.241489 
" clip-path="url(#pfc4d7c1b11)" style="fill: none; stroke: #ec2997; stroke-width: 0.5; stroke-linecap: square"/>
   </g>
   <g id="line2d_50">
    <path d="M 177.854325 204.53881 
L 172.345045 179.241489 
" clip-path="url(#pfc4d7c1b11)" style="fill: none; stroke: #ec2997; stroke-width: 0.5; stroke-linecap: square"/>
   </g>
   <g id="line2d_51">
    <path d="M 177.854325 204.53881 
L 195.749119 184.087574 
" clip-path="url(#pfc4d7c1b11)" style="fill: none; stroke: #ec2997; stroke-width: 0.5; stroke-linecap: square"/>
   </g>
   <g id="line2d_52">
    <path d="M 195.749119 184.087574 
L 172.345045 179.241489 
" clip-path="url(#pfc4d7c1b11)" style="fill: none; stroke: #ec2997; stroke-width: 0.5; stroke-linecap: square"/>
   </g>
   <g id="line2d_53">
    <path d="M 172.345045 179.241489 
L 205.107804 161.09221 
" clip-path="url(#pfc4d7c1b11)" style="fill: none; stroke: #ec2997; stroke-width: 0.5; stroke-linecap: square"/>
   </g>
   <g id="line2d_54">
    <path d="M 195.749119 184.087574 
L 220.245063 168.530279 
" clip-path="url(#pfc4d7c1b11)" style="fill: none; stroke: #ec2997; stroke-width: 0.5; stroke-linecap: square"/>
   </g>
   <g id="line2d_55">
    <path d="M 172.345045 179.241489 
L 220.245063 168.530279 
" clip-path="url(#pfc4d7c1b11)" style="fill: none; stroke: #ec2997; stroke-width: 0.5; stroke-linecap: square"/>
   </g>
   <g id="line2d_56">
    <path d="M 195.749119 184.087574 
L 205.107804 161.09221 
" clip-path="url(#pfc4d7c1b11)" style="fill: none; stroke: #ec2997; stroke-width: 0.5; stroke-linecap: square"/>
   </g>
   <g id="line2d_57">
    <path d="M 220.245063 168.530279 
L 205.107804 161.09221 
" clip-path="url(#pfc4d7c1b11)" style="fill: none; stroke: #ec2997; stroke-width: 0.5; stroke-linecap: square"/>
   </g>
   <g id="line2d_58">
    <path d="M 205.107804 161.09221 
L 236.080649 150.08924 
" clip-path="url(#pfc4d7c1b11)" style="fill: none; stroke: #ec2997; stroke-width: 0.5; stroke-linecap: square"/>
   </g>
   <g id="line2d_59">
    <path d="M 220.245063 168.530279 
L 251.30582 157.280364 
" clip-path="url(#pfc4d7c1b11)" style="fill: none; stroke: #ec2997; stroke-width: 0.5; stroke-linecap: square"/>
   </g>
   <g id="line2d_60">
    <path d="M 220.245063 168.530279 
L 236.080649 150.08924 
" clip-path="url(#pfc4d7c1b11)" style="fill: none; stroke: #ec2997; stroke-width: 0.5; stroke-linecap: square"/>
   </g>
   <g id="line2d_61">
    <path d="M 205.107804 161.09221 
L 251.30582 157.280364 
" clip-path="url(#pfc4d7c1b11)" style="fill: none; stroke: #ec2997; stroke-width: 0.5; stroke-linecap: square"/>
   </g>
   <g id="line2d_62">
    <path d="M 251.30582 157.280364 
L 236.080649 150.08924 
" clip-path="url(#pfc4d7c1b11)" style="fill: none; stroke: #ec2997; stroke-width: 0.5; stroke-linecap: square"/>
   </g>
   <g id="line2d_63">
    <path d="M 251.30582 157.280364 
L 289.113351 149.938123 
" clip-path="url(#pfc4d7c1b11)" style="fill: none; stroke: #ec2997; stroke-width: 0.5; stroke-linecap: square"/>
   </g>
   <g id="line2d_64">
    <path d="M 236.080649 150.08924 
L 280.992567 140.271302 
" clip-path="url(#pfc4d7c1b11)" style="fill: none; stroke: #ec2997; stroke-width: 0.5; stroke-linecap: square"/>
   </g>
   <g id="line2d_65">
    <path d="M 251.30582 157.280364 
L 280.992567 140.271302 
" clip-path="url(#pfc4d7c1b11)" style="fill: none; stroke: #ec2997; stroke-width: 0.5; stroke-linecap: square"/>
   </g>
   <g id="line2d_66">
    <path d="M 236.080649 150.08924 
L 289.113351 149.938123 
" clip-path="url(#pfc4d7c1b11)" style="fill: none; stroke: #ec2997; stroke-width: 0.5; stroke-linecap: square"/>
   </g>
   <g id="line2d_67">
    <path d="M 289.113351 149.938123 
L 280.992567 140.271302 
" clip-path="url(#pfc4d7c1b11)" style="fill: none; stroke: #ec2997; stroke-width: 0.5; stroke-linecap: square"/>
   </g>
   <g id="line2d_68">
    <path d="M 280.992567 140.271302 
L 325.31938 136.695193 
" clip-path="url(#pfc4d7c1b11)" style="fill: none; stroke: #ec2997; stroke-width: 0.5; stroke-linecap: square"/>
   </g>
   <g id="line2d_69">
    <path d="M 289.113351 149.938123 
L 334.059748 146.253495 
" clip-path="url(#pfc4d7c1b11)" style="fill: none; stroke: #ec2997; stroke-width: 0.5; stroke-linecap: square"/>
   </g>
   <g id="line2d_70">
    <path d="M 280.992567 140.271302 
L 334.059748 146.253495 
" clip-path="url(#pfc4d7c1b11)" style="fill: none; stroke: #ec2997; stroke-width: 0.5; stroke-linecap: square"/>
   </g>
   <g id="line2d_71">
    <path d="M 334.059748 146.253495 
L 325.31938 136.695193 
" clip-path="url(#pfc4d7c1b11)" style="fill: none; stroke: #ec2997; stroke-width: 0.5; stroke-linecap: square"/>
   </g>
   <g id="line2d_72">
    <path d="M 154.248918 212.314415 
L 153.886061 199.399653 
" clip-path="url(#pfc4d7c1b11)" style="fill: none; stroke: #ec2997; stroke-width: 0.5; stroke-linecap: square"/>
   </g>
   <g id="line2d_73">
    <path d="M 178.117814 217.526213 
L 177.854325 204.53881 
" clip-path="url(#pfc4d7c1b11)" style="fill: none; stroke: #ec2997; stroke-width: 0.5; stroke-linecap: square"/>
   </g>
   <g id="line2d_74">
    <path d="M 195.931022 196.783982 
L 195.749119 184.087574 
" clip-path="url(#pfc4d7c1b11)" style="fill: none; stroke: #ec2997; stroke-width: 0.5; stroke-linecap: square"/>
   </g>
   <g id="line2d_75">
    <path d="M 172.621721 191.868191 
L 172.345045 179.241489 
" clip-path="url(#pfc4d7c1b11)" style="fill: none; stroke: #ec2997; stroke-width: 0.5; stroke-linecap: square"/>
   </g>
   <g id="line2d_76">
    <path d="M 205.246226 173.455297 
L 205.107804 161.09221 
" clip-path="url(#pfc4d7c1b11)" style="fill: none; stroke: #ec2997; stroke-width: 0.5; stroke-linecap: square"/>
   </g>
   <g id="line2d_77">
    <path d="M 220.323884 181.00189 
L 220.245063 168.530279 
" clip-path="url(#pfc4d7c1b11)" style="fill: none; stroke: #ec2997; stroke-width: 0.5; stroke-linecap: square"/>
   </g>
   <g id="line2d_78">
    <path d="M 236.095089 162.290542 
L 236.080649 150.08924 
" clip-path="url(#pfc4d7c1b11)" style="fill: none; stroke: #ec2997; stroke-width: 0.5; stroke-linecap: square"/>
   </g>
   <g id="line2d_79">
    <path d="M 251.259943 169.587571 
L 251.30582 157.280364 
" clip-path="url(#pfc4d7c1b11)" style="fill: none; stroke: #ec2997; stroke-width: 0.5; stroke-linecap: square"/>
   </g>
   <g id="line2d_80">
    <path d="M 288.919481 162.137193 
L 289.113351 149.938123 
" clip-path="url(#pfc4d7c1b11)" style="fill: none; stroke: #ec2997; stroke-width: 0.5; stroke-linecap: square"/>
   </g>
   <g id="line2d_81">
    <path d="M 280.832994 152.326992 
L 280.992567 140.271302 
" clip-path="url(#pfc4d7c1b11)" style="fill: none; stroke: #ec2997; stroke-width: 0.5; stroke-linecap: square"/>
   </g>
   <g id="line2d_82">
    <path d="M 324.99012 148.69755 
L 325.31938 136.695193 
" clip-path="url(#pfc4d7c1b11)" style="fill: none; stroke: #ec2997; stroke-width: 0.5; stroke-linecap: square"/>
   </g>
   <g id="line2d_83">
    <path d="M 333.691424 158.398049 
L 334.059748 146.253495 
" clip-path="url(#pfc4d7c1b11)" style="fill: none; stroke: #ec2997; stroke-width: 0.5; stroke-linecap: square"/>
   </g>
   <g id="line2d_84">
    <path d="M 178.117814 217.526213 
L 172.345045 179.241489 
" clip-path="url(#pfc4d7c1b11)" style="fill: none; stroke: #ec2997; stroke-width: 0.5; stroke-linecap: square"/>
   </g>
   <g id="line2d_85">
    <path d="M 154.248918 212.314415 
L 195.749119 184.087574 
" clip-path="url(#pfc4d7c1b11)" style="fill: none; stroke: #ec2997; stroke-width: 0.5; stroke-linecap: square"/>
   </g>
   <g id="line2d_86">
    <path d="M 172.621721 191.868191 
L 220.245063 168.530279 
" clip-path="url(#pfc4d7c1b11)" style="fill: none; stroke: #ec2997; stroke-width: 0.5; stroke-linecap: square"/>
   </g>
   <g id="line2d_87">
    <path d="M 195.931022 196.783982 
L 205.107804 161.09221 
" clip-path="url(#pfc4d7c1b11)" style="fill: none; stroke: #ec2997; stroke-width: 0.5; stroke-linecap: square"/>
   </g>
   <g id="line2d_88">
    <path d="M 205.246226 173.455297 
L 251.30582 157.280364 
" clip-path="url(#pfc4d7c1b11)" style="fill: none; stroke: #ec2997; stroke-width: 0.5; stroke-linecap: square"/>
   </g>
   <g id="line2d_89">
    <path d="M 220.323884 181.00189 
L 236.080649 150.08924 
" clip-path="url(#pfc4d7c1b11)" style="fill: none; stroke: #ec2997; stroke-width: 0.5; stroke-linecap: square"/>
   </g>
   <g id="line2d_90">
    <path d="M 251.259943 169.587571 
L 280.992567 140.271302 
" clip-path="url(#pfc4d7c1b11)" style="fill: none; stroke: #ec2997; stroke-width: 0.5; stroke-linecap: square"/>
   </g>
   <g id="line2d_91">
    <path d="M 236.095089 162.290542 
L 289.113351 149.938123 
" clip-path="url(#pfc4d7c1b11)" style="fill: none; stroke: #ec2997; stroke-width: 0.5; stroke-linecap: square"/>
   </g>
   <g id="line2d_92">
    <path d="M 324.99012 148.69755 
L 289.113351 149.938123 
" clip-path="url(#pfc4d7c1b11)" style="fill: none; stroke: #ec2997; stroke-width: 0.5; stroke-linecap: square"/>
   </g>
   <g id="line2d_93">
    <path d="M 333.691424 158.398049 
L 280.992567 140.271302 
" clip-path="url(#pfc4d7c1b11)" style="fill: none; stroke: #ec2997; stroke-width: 0.5; stroke-linecap: square"/>
   </g>
   <g id="Path3DCollection_1">
    <defs>
     <path id="m3211b2f7ab" d="M 0 1.118034 
C 0.296506 1.118034 0.580908 1.000231 0.790569 0.790569 
C 1.000231 0.580908 1.118034 0.296506 1.118034 0 
C 1.118034 -0.296506 1.000231 -0.580908 0.790569 -0.790569 
C 0.580908 -1.000231 0.296506 -1.118034 0 -1.118034 
C -0.296506 -1.118034 -0.580908 -1.000231 -0.790569 -0.790569 
C -1.000231 -0.580908 -1.118034 -0.296506 -1.118034 0 
C -1.118034 0.296506 -1.000231 0.580908 -0.790569 0.790569 
C -0.580908 1.000231 -0.296506 1.118034 0 1.118034 
z
" style="stroke: #00ff00"/>
    </defs>
    <g clip-path="url(#pfc4d7c1b11)">
     <use xlink:href="#m3211b2f7ab" x="324.99012" y="148.69755" style="fill: #00ff00; stroke: #00ff00"/>
    </g>
   </g>
   <g id="Path3DCollection_2">
    <g clip-path="url(#pfc4d7c1b11)">
     <use xlink:href="#m3211b2f7ab" x="325.31938" y="136.695193" style="fill: #00ff00; stroke: #00ff00"/>
    </g>
   </g>
   <g id="Path3DCollection_3">
    <g clip-path="url(#pfc4d7c1b11)">
     <use xlink:href="#m3211b2f7ab" x="280.832994" y="152.326992" style="fill: #00ff00; stroke: #00ff00"/>
    </g>
   </g>
   <g id="Path3DCollection_4">
    <g clip-path="url(#pfc4d7c1b11)">
     <use xlink:href="#m3211b2f7ab" x="280.992567" y="140.271302" style="fill: #00ff00; stroke: #00ff00"/>
    </g>
   </g>
   <g id="Path3DCollection_5">
    <defs>
     <path id="mcd30abb0cf" d="M 0 2.236068 
C 0.593012 2.236068 1.161816 2.000462 1.581139 1.581139 
C 2.000462 1.161816 2.236068 0.593012 2.236068 0 
C 2.236068 -0.593012 2.000462 -1.161816 1.581139 -1.581139 
C 1.161816 -2.000462 0.593012 -2.236068 0 -2.236068 
C -0.593012 -2.236068 -1.161816 -2.000462 -1.581139 -1.581139 
C -2.000462 -1.161816 -2.236068 -0.593012 -2.236068 0 
C -2.236068 0.593012 -2.000462 1.161816 -1.581139 1.581139 
C -1.161816 2.000462 -0.593012 2.236068 0 2.236068 
z
" style="stroke: #0000ff"/>
    </defs>
    <g clip-path="url(#pfc4d7c1b11)">
     <use xlink:href="#mcd30abb0cf" x="333.691424" y="158.398049" style="fill: #0000ff; stroke: #0000ff"/>
    </g>
   </g>
   <g id="Path3DCollection_6">
    <g clip-path="url(#pfc4d7c1b11)">
     <use xlink:href="#mcd30abb0cf" x="334.059748" y="146.253495" style="fill: #0000ff; stroke: #0000ff"/>
    </g>
   </g>
   <g id="Path3DCollection_7">
    <g clip-path="url(#pfc4d7c1b11)">
     <use xlink:href="#m3211b2f7ab" x="288.919481" y="162.137193" style="fill: #00ff00; stroke: #00ff00"/>
    </g>
   </g>
   <g id="Path3DCollection_8">
    <g clip-path="url(#pfc4d7c1b11)">
     <use xlink:href="#m3211b2f7ab" x="236.095089" y="162.290542" style="fill: #00ff00; stroke: #00ff00"/>
    </g>
   </g>
   <g id="Path3DCollection_9">
    <g clip-path="url(#pfc4d7c1b11)">
     <use xlink:href="#m3211b2f7ab" x="289.113351" y="149.938123" style="fill: #00ff00; stroke: #00ff00"/>
    </g>
   </g>
   <g id="Path3DCollection_10">
    <g clip-path="url(#pfc4d7c1b11)">
     <use xlink:href="#m3211b2f7ab" x="236.080649" y="150.08924" style="fill: #00ff00; stroke: #00ff00"/>
    </g>
   </g>
   <g id="Path3DCollection_11">
    <g clip-path="url(#pfc4d7c1b11)">
     <use xlink:href="#m3211b2f7ab" x="251.259943" y="169.587571" style="fill: #00ff00; stroke: #00ff00"/>
    </g>
   </g>
   <g id="Path3DCollection_12">
    <g clip-path="url(#pfc4d7c1b11)">
     <use xlink:href="#m3211b2f7ab" x="251.30582" y="157.280364" style="fill: #00ff00; stroke: #00ff00"/>
    </g>
   </g>
   <g id="Path3DCollection_13">
    <g clip-path="url(#pfc4d7c1b11)">
     <use xlink:href="#m3211b2f7ab" x="205.246226" y="173.455297" style="fill: #00ff00; stroke: #00ff00"/>
    </g>
   </g>
   <g id="Path3DCollection_14">
    <g clip-path="url(#pfc4d7c1b11)">
     <use xlink:href="#m3211b2f7ab" x="205.107804" y="161.09221" style="fill: #00ff00; stroke: #00ff00"/>
    </g>
   </g>
   <g id="Path3DCollection_15">
    <g clip-path="url(#pfc4d7c1b11)">
     <use xlink:href="#m3211b2f7ab" x="220.323884" y="181.00189" style="fill: #00ff00; stroke: #00ff00"/>
    </g>
   </g>
   <g id="Path3DCollection_16">
    <g clip-path="url(#pfc4d7c1b11)">
     <use xlink:href="#m3211b2f7ab" x="220.245063" y="168.530279" style="fill: #00ff00; stroke: #00ff00"/>
    </g>
   </g>
   <g id="Path3DCollection_17">
    <g clip-path="url(#pfc4d7c1b11)">
     <use xlink:href="#m3211b2f7ab" x="172.621721" y="191.868191" style="fill: #00ff00; stroke: #00ff00"/>
    </g>
   </g>
   <g id="Path3DCollection_18">
    <g clip-path="url(#pfc4d7c1b11)">
     <use xlink:href="#m3211b2f7ab" x="172.345045" y="179.241489" style="fill: #00ff00; stroke: #00ff00"/>
    </g>
   </g>
   <g id="Path3DCollection_19">
    <g clip-path="url(#pfc4d7c1b11)">
     <use xlink:href="#m3211b2f7ab" x="195.931022" y="196.783982" style="fill: #00ff00; stroke: #00ff00"/>
    </g>
   </g>
   <g id="Path3DCollection_20">
    <g clip-path="url(#pfc4d7c1b11)">
     <use xlink:href="#m3211b2f7ab" x="195.749119" y="184.087574" style="fill: #00ff00; stroke: #00ff00"/>
    </g>
   </g>
   <g id="Path3DCollection_21">
    <g clip-path="url(#pfc4d7c1b11)">
     <use xlink:href="#m3211b2f7ab" x="154.248918" y="212.314415" style="fill: #00ff00; stroke: #00ff00"/>
    </g>
   </g>
   <g id="Path3DCollection_22">
    <g clip-path="url(#pfc4d7c1b11)">
     <use xlink:href="#m3211b2f7ab" x="153.886061" y="199.399653" style="fill: #00ff00; stroke: #00ff00"/>
    </g>
   </g>
   <g id="Poly3DCollection_1">
    <path d="M 186.062766 215.637481 
L 186.200103 223.413312 
L 178.117814 217.526213 
z
" clip-path="url(#pfc4d7c1b11)" style="fill: #ff0000; fill-opacity: 0.9; stroke: #ff0000; stroke-width: 0.5"/>
    <path d="M 181.114039 225.370595 
L 186.200103 223.413312 
L 178.117814 217.526213 
z
" clip-path="url(#pfc4d7c1b11)" style="fill: #ff0000; fill-opacity: 0.9; stroke: #ff0000; stroke-width: 0.5"/>
    <path d="M 186.062766 215.637481 
L 180.963251 217.578699 
L 178.117814 217.526213 
z
" clip-path="url(#pfc4d7c1b11)" style="fill: #ff0000; fill-opacity: 0.9; stroke: #ff0000; stroke-width: 0.5"/>
    <path d="M 181.114039 225.370595 
L 180.963251 217.578699 
L 178.117814 217.526213 
z
" clip-path="url(#pfc4d7c1b11)" style="fill: #ff0000; fill-opacity: 0.9; stroke: #ff0000; stroke-width: 0.5"/>
    <path d="M 181.114039 225.370595 
L 186.200103 223.413312 
L 186.062766 215.637481 
L 180.963251 217.578699 
z
" clip-path="url(#pfc4d7c1b11)" style="fill: #ff0000; fill-opacity: 0.9; stroke: #ff0000; stroke-width: 0.5"/>
   </g>
   <g id="Poly3DCollection_2">
    <path d="M 185.832299 202.58876 
L 185.970816 210.431401 
L 177.854325 204.53881 
z
" clip-path="url(#pfc4d7c1b11)" style="fill: #ff0000; fill-opacity: 0.9; stroke: #ff0000; stroke-width: 0.5"/>
    <path d="M 180.862295 212.361802 
L 185.970816 210.431401 
L 177.854325 204.53881 
z
" clip-path="url(#pfc4d7c1b11)" style="fill: #ff0000; fill-opacity: 0.9; stroke: #ff0000; stroke-width: 0.5"/>
    <path d="M 185.832299 202.58876 
L 180.710208 204.502777 
L 177.854325 204.53881 
z
" clip-path="url(#pfc4d7c1b11)" style="fill: #ff0000; fill-opacity: 0.9; stroke: #ff0000; stroke-width: 0.5"/>
    <path d="M 180.862295 212.361802 
L 180.710208 204.502777 
L 177.854325 204.53881 
z
" clip-path="url(#pfc4d7c1b11)" style="fill: #ff0000; fill-opacity: 0.9; stroke: #ff0000; stroke-width: 0.5"/>
    <path d="M 180.862295 212.361802 
L 185.970816 210.431401 
L 185.832299 202.58876 
L 180.710208 204.502777 
z
" clip-path="url(#pfc4d7c1b11)" style="fill: #ff0000; fill-opacity: 0.9; stroke: #ff0000; stroke-width: 0.5"/>
   </g>
  </g>
 </g>
 <defs>
  <clipPath id="pfc4d7c1b11">
   <rect x="103.104" y="41.472" width="266.112" height="266.112"/>
  </clipPath>
 </defs>
</svg>
