<?xml version="1.0" encoding="utf-8" standalone="no"?>
<!DOCTYPE svg PUBLIC "-//W3C//DTD SVG 1.1//EN"
  "http://www.w3.org/Graphics/SVG/1.1/DTD/svg11.dtd">
<svg xmlns:xlink="http://www.w3.org/1999/xlink" width="460.8pt" height="345.6pt" viewBox="0 0 460.8 345.6" xmlns="http://www.w3.org/2000/svg" version="1.1">
 <metadata>
  <rdf:RDF xmlns:dc="http://purl.org/dc/elements/1.1/" xmlns:cc="http://creativecommons.org/ns#" xmlns:rdf="http://www.w3.org/1999/02/22-rdf-syntax-ns#">
   <cc:Work>
    <dc:type rdf:resource="http://purl.org/dc/dcmitype/StillImage"/>
    <dc:date>2022-10-25T11:26:55.131537</dc:date>
    <dc:format>image/svg+xml</dc:format>
    <dc:creator>
     <cc:Agent>
      <dc:title>Matplotlib v3.5.1, https://matplotlib.org/</dc:title>
     </cc:Agent>
    </dc:creator>
   </cc:Work>
  </rdf:RDF>
 </metadata>
 <defs>
  <style type="text/css">*{stroke-linejoin: round; stroke-linecap: butt}</style>
 </defs>
 <g id="figure_1">
  <g id="patch_1">
   <path d="M 0 345.6 
L 460.8 345.6 
L 460.8 0 
L 0 0 
z
" style="fill: #d6bea9"/>
  </g>
  <g id="patch_2">
   <path d="M 103.104 307.584 
L 369.216 307.584 
L 369.216 41.472 
L 103.104 41.472 
z
" style="fill: #d6bea9"/>
  </g>
  <g id="pane3d_1">
   <g id="patch_3">
    <path d="M 347.844184 229.480524 
L 239.756108 160.597709 
L 239.756108 41.515006 
L 355.768698 108.090746 
" style="fill: #f2f2f2; opacity: 0.5; stroke: #ff5b00; stroke-linejoin: miter"/>
   </g>
  </g>
  <g id="pane3d_2">
   <g id="patch_4">
    <path d="M 131.668032 229.480524 
L 239.756108 160.597709 
L 239.756108 41.515006 
L 123.743518 108.090746 
" style="fill: #e6e6e6; opacity: 0.5; stroke: #ff5b00; stroke-linejoin: miter"/>
   </g>
  </g>
  <g id="pane3d_3">
   <g id="patch_5">
    <path d="M 239.756108 306.77782 
L 347.844184 229.480524 
L 239.756108 160.597709 
L 131.668032 229.480524 
" style="fill: #ececec; opacity: 0.5; stroke: #ff5b00; stroke-linejoin: miter"/>
   </g>
  </g>
  <g id="axis3d_1">
   <g id="line2d_1">
    <path d="M 347.844184 229.480524 
L 239.756108 306.77782 
" style="fill: none; stroke: #000000; stroke-width: 0.8; stroke-linecap: square"/>
   </g>
  </g>
  <g id="axis3d_2">
   <g id="line2d_2">
    <path d="M 131.668032 229.480524 
L 239.756108 306.77782 
" style="fill: none; stroke: #000000; stroke-width: 0.8; stroke-linecap: square"/>
   </g>
  </g>
  <g id="axis3d_3">
   <g id="line2d_3">
    <path d="M 131.668032 229.480524 
L 123.743518 108.090746 
" style="fill: none; stroke: #000000; stroke-width: 0.8; stroke-linecap: square"/>
   </g>
  </g>
  <g id="axes_1">
   <g id="line2d_4">
    <path d="M 233.093541 246.241409 
L 197.278318 227.948356 
" clip-path="url(#p6bae7964a8)" style="fill: none; stroke: #ec2997; stroke-width: 0.3; stroke-linecap: square"/>
   </g>
   <g id="line2d_5">
    <path d="M 197.278318 227.948356 
L 185.605052 195.422881 
" clip-path="url(#p6bae7964a8)" style="fill: none; stroke: #ec2997; stroke-width: 0.3; stroke-linecap: square"/>
   </g>
   <g id="line2d_6">
    <path d="M 233.093541 246.241409 
L 185.605052 195.422881 
" clip-path="url(#p6bae7964a8)" style="fill: none; stroke: #ec2997; stroke-width: 0.3; stroke-linecap: square"/>
   </g>
   <g id="line2d_7">
    <path d="M 233.093541 246.241409 
L 220.321163 212.780153 
" clip-path="url(#p6bae7964a8)" style="fill: none; stroke: #ec2997; stroke-width: 0.3; stroke-linecap: square"/>
   </g>
   <g id="line2d_8">
    <path d="M 220.321163 212.780153 
L 185.605052 195.422881 
" clip-path="url(#p6bae7964a8)" style="fill: none; stroke: #ec2997; stroke-width: 0.3; stroke-linecap: square"/>
   </g>
   <g id="line2d_9">
    <path d="M 185.605052 195.422881 
L 193.477847 171.31642 
" clip-path="url(#p6bae7964a8)" style="fill: none; stroke: #ec2997; stroke-width: 0.3; stroke-linecap: square"/>
   </g>
   <g id="line2d_10">
    <path d="M 220.321163 212.780153 
L 223.157529 190.882444 
" clip-path="url(#p6bae7964a8)" style="fill: none; stroke: #ec2997; stroke-width: 0.3; stroke-linecap: square"/>
   </g>
   <g id="line2d_11">
    <path d="M 185.605052 195.422881 
L 223.157529 190.882444 
" clip-path="url(#p6bae7964a8)" style="fill: none; stroke: #ec2997; stroke-width: 0.3; stroke-linecap: square"/>
   </g>
   <g id="line2d_12">
    <path d="M 220.321163 212.780153 
L 193.477847 171.31642 
" clip-path="url(#p6bae7964a8)" style="fill: none; stroke: #ec2997; stroke-width: 0.3; stroke-linecap: square"/>
   </g>
   <g id="line2d_13">
    <path d="M 223.157529 190.882444 
L 193.477847 171.31642 
" clip-path="url(#p6bae7964a8)" style="fill: none; stroke: #ec2997; stroke-width: 0.3; stroke-linecap: square"/>
   </g>
   <g id="line2d_14">
    <path d="M 193.477847 171.31642 
L 211.171132 160.213412 
" clip-path="url(#p6bae7964a8)" style="fill: none; stroke: #ec2997; stroke-width: 0.3; stroke-linecap: square"/>
   </g>
   <g id="line2d_15">
    <path d="M 223.157529 190.882444 
L 240.857546 179.418373 
" clip-path="url(#p6bae7964a8)" style="fill: none; stroke: #ec2997; stroke-width: 0.3; stroke-linecap: square"/>
   </g>
   <g id="line2d_16">
    <path d="M 223.157529 190.882444 
L 211.171132 160.213412 
" clip-path="url(#p6bae7964a8)" style="fill: none; stroke: #ec2997; stroke-width: 0.3; stroke-linecap: square"/>
   </g>
   <g id="line2d_17">
    <path d="M 193.477847 171.31642 
L 240.857546 179.418373 
" clip-path="url(#p6bae7964a8)" style="fill: none; stroke: #ec2997; stroke-width: 0.3; stroke-linecap: square"/>
   </g>
   <g id="line2d_18">
    <path d="M 240.857546 179.418373 
L 211.171132 160.213412 
" clip-path="url(#p6bae7964a8)" style="fill: none; stroke: #ec2997; stroke-width: 0.3; stroke-linecap: square"/>
   </g>
   <g id="line2d_19">
    <path d="M 240.857546 179.418373 
L 273.430794 177.82016 
" clip-path="url(#p6bae7964a8)" style="fill: none; stroke: #ec2997; stroke-width: 0.3; stroke-linecap: square"/>
   </g>
   <g id="line2d_20">
    <path d="M 211.171132 160.213412 
L 247.562216 155.928443 
" clip-path="url(#p6bae7964a8)" style="fill: none; stroke: #ec2997; stroke-width: 0.3; stroke-linecap: square"/>
   </g>
   <g id="line2d_21">
    <path d="M 240.857546 179.418373 
L 247.562216 155.928443 
" clip-path="url(#p6bae7964a8)" style="fill: none; stroke: #ec2997; stroke-width: 0.3; stroke-linecap: square"/>
   </g>
   <g id="line2d_22">
    <path d="M 211.171132 160.213412 
L 273.430794 177.82016 
" clip-path="url(#p6bae7964a8)" style="fill: none; stroke: #ec2997; stroke-width: 0.3; stroke-linecap: square"/>
   </g>
   <g id="line2d_23">
    <path d="M 273.430794 177.82016 
L 247.562216 155.928443 
" clip-path="url(#p6bae7964a8)" style="fill: none; stroke: #ec2997; stroke-width: 0.3; stroke-linecap: square"/>
   </g>
   <g id="line2d_24">
    <path d="M 247.562216 155.928443 
L 294.692333 163.824521 
" clip-path="url(#p6bae7964a8)" style="fill: none; stroke: #ec2997; stroke-width: 0.3; stroke-linecap: square"/>
   </g>
   <g id="line2d_25">
    <path d="M 273.430794 177.82016 
L 321.606853 186.00993 
" clip-path="url(#p6bae7964a8)" style="fill: none; stroke: #ec2997; stroke-width: 0.3; stroke-linecap: square"/>
   </g>
   <g id="line2d_26">
    <path d="M 247.562216 155.928443 
L 321.606853 186.00993 
" clip-path="url(#p6bae7964a8)" style="fill: none; stroke: #ec2997; stroke-width: 0.3; stroke-linecap: square"/>
   </g>
   <g id="line2d_27">
    <path d="M 321.606853 186.00993 
L 294.692333 163.824521 
" clip-path="url(#p6bae7964a8)" style="fill: none; stroke: #ec2997; stroke-width: 0.3; stroke-linecap: square"/>
   </g>
   <g id="line2d_28">
    <path d="M 232.933885 206.966616 
L 196.275277 188.815117 
" clip-path="url(#p6bae7964a8)" style="fill: none; stroke: #ec2997; stroke-width: 0.3; stroke-linecap: square"/>
   </g>
   <g id="line2d_29">
    <path d="M 196.275277 188.815117 
L 184.360026 156.57195 
" clip-path="url(#p6bae7964a8)" style="fill: none; stroke: #ec2997; stroke-width: 0.3; stroke-linecap: square"/>
   </g>
   <g id="line2d_30">
    <path d="M 232.933885 206.966616 
L 184.360026 156.57195 
" clip-path="url(#p6bae7964a8)" style="fill: none; stroke: #ec2997; stroke-width: 0.3; stroke-linecap: square"/>
   </g>
   <g id="line2d_31">
    <path d="M 232.933885 206.966616 
L 219.867875 173.773693 
" clip-path="url(#p6bae7964a8)" style="fill: none; stroke: #ec2997; stroke-width: 0.3; stroke-linecap: square"/>
   </g>
   <g id="line2d_32">
    <path d="M 219.867875 173.773693 
L 184.360026 156.57195 
" clip-path="url(#p6bae7964a8)" style="fill: none; stroke: #ec2997; stroke-width: 0.3; stroke-linecap: square"/>
   </g>
   <g id="line2d_33">
    <path d="M 184.360026 156.57195 
L 192.435128 132.699979 
" clip-path="url(#p6bae7964a8)" style="fill: none; stroke: #ec2997; stroke-width: 0.3; stroke-linecap: square"/>
   </g>
   <g id="line2d_34">
    <path d="M 219.867875 173.773693 
L 222.777339 152.074037 
" clip-path="url(#p6bae7964a8)" style="fill: none; stroke: #ec2997; stroke-width: 0.3; stroke-linecap: square"/>
   </g>
   <g id="line2d_35">
    <path d="M 184.360026 156.57195 
L 222.777339 152.074037 
" clip-path="url(#p6bae7964a8)" style="fill: none; stroke: #ec2997; stroke-width: 0.3; stroke-linecap: square"/>
   </g>
   <g id="line2d_36">
    <path d="M 219.867875 173.773693 
L 192.435128 132.699979 
" clip-path="url(#p6bae7964a8)" style="fill: none; stroke: #ec2997; stroke-width: 0.3; stroke-linecap: square"/>
   </g>
   <g id="line2d_37">
    <path d="M 222.777339 152.074037 
L 192.435128 132.699979 
" clip-path="url(#p6bae7964a8)" style="fill: none; stroke: #ec2997; stroke-width: 0.3; stroke-linecap: square"/>
   </g>
   <g id="line2d_38">
    <path d="M 192.435128 132.699979 
L 210.533124 121.712196 
" clip-path="url(#p6bae7964a8)" style="fill: none; stroke: #ec2997; stroke-width: 0.3; stroke-linecap: square"/>
   </g>
   <g id="line2d_39">
    <path d="M 222.777339 152.074037 
L 240.882533 140.720726 
" clip-path="url(#p6bae7964a8)" style="fill: none; stroke: #ec2997; stroke-width: 0.3; stroke-linecap: square"/>
   </g>
   <g id="line2d_40">
    <path d="M 222.777339 152.074037 
L 210.533124 121.712196 
" clip-path="url(#p6bae7964a8)" style="fill: none; stroke: #ec2997; stroke-width: 0.3; stroke-linecap: square"/>
   </g>
   <g id="line2d_41">
    <path d="M 192.435128 132.699979 
L 240.882533 140.720726 
" clip-path="url(#p6bae7964a8)" style="fill: none; stroke: #ec2997; stroke-width: 0.3; stroke-linecap: square"/>
   </g>
   <g id="line2d_42">
    <path d="M 240.882533 140.720726 
L 210.533124 121.712196 
" clip-path="url(#p6bae7964a8)" style="fill: none; stroke: #ec2997; stroke-width: 0.3; stroke-linecap: square"/>
   </g>
   <g id="line2d_43">
    <path d="M 240.882533 140.720726 
L 274.193715 139.13834 
" clip-path="url(#p6bae7964a8)" style="fill: none; stroke: #ec2997; stroke-width: 0.3; stroke-linecap: square"/>
   </g>
   <g id="line2d_44">
    <path d="M 210.533124 121.712196 
L 247.735808 117.472913 
" clip-path="url(#p6bae7964a8)" style="fill: none; stroke: #ec2997; stroke-width: 0.3; stroke-linecap: square"/>
   </g>
   <g id="line2d_45">
    <path d="M 240.882533 140.720726 
L 247.735808 117.472913 
" clip-path="url(#p6bae7964a8)" style="fill: none; stroke: #ec2997; stroke-width: 0.3; stroke-linecap: square"/>
   </g>
   <g id="line2d_46">
    <path d="M 210.533124 121.712196 
L 274.193715 139.13834 
" clip-path="url(#p6bae7964a8)" style="fill: none; stroke: #ec2997; stroke-width: 0.3; stroke-linecap: square"/>
   </g>
   <g id="line2d_47">
    <path d="M 274.193715 139.13834 
L 247.735808 117.472913 
" clip-path="url(#p6bae7964a8)" style="fill: none; stroke: #ec2997; stroke-width: 0.3; stroke-linecap: square"/>
   </g>
   <g id="line2d_48">
    <path d="M 247.735808 117.472913 
L 295.922277 125.285329 
" clip-path="url(#p6bae7964a8)" style="fill: none; stroke: #ec2997; stroke-width: 0.3; stroke-linecap: square"/>
   </g>
   <g id="line2d_49">
    <path d="M 274.193715 139.13834 
L 323.474031 147.248005 
" clip-path="url(#p6bae7964a8)" style="fill: none; stroke: #ec2997; stroke-width: 0.3; stroke-linecap: square"/>
   </g>
   <g id="line2d_50">
    <path d="M 247.735808 117.472913 
L 323.474031 147.248005 
" clip-path="url(#p6bae7964a8)" style="fill: none; stroke: #ec2997; stroke-width: 0.3; stroke-linecap: square"/>
   </g>
   <g id="line2d_51">
    <path d="M 323.474031 147.248005 
L 295.922277 125.285329 
" clip-path="url(#p6bae7964a8)" style="fill: none; stroke: #ec2997; stroke-width: 0.3; stroke-linecap: square"/>
   </g>
   <g id="line2d_52">
    <path d="M 197.278318 227.948356 
L 196.275277 188.815117 
" clip-path="url(#p6bae7964a8)" style="fill: none; stroke: #ec2997; stroke-width: 0.3; stroke-linecap: square"/>
   </g>
   <g id="line2d_53">
    <path d="M 233.093541 246.241409 
L 232.933885 206.966616 
" clip-path="url(#p6bae7964a8)" style="fill: none; stroke: #ec2997; stroke-width: 0.3; stroke-linecap: square"/>
   </g>
   <g id="line2d_54">
    <path d="M 220.321163 212.780153 
L 219.867875 173.773693 
" clip-path="url(#p6bae7964a8)" style="fill: none; stroke: #ec2997; stroke-width: 0.3; stroke-linecap: square"/>
   </g>
   <g id="line2d_55">
    <path d="M 185.605052 195.422881 
L 184.360026 156.57195 
" clip-path="url(#p6bae7964a8)" style="fill: none; stroke: #ec2997; stroke-width: 0.3; stroke-linecap: square"/>
   </g>
   <g id="line2d_56">
    <path d="M 193.477847 171.31642 
L 192.435128 132.699979 
" clip-path="url(#p6bae7964a8)" style="fill: none; stroke: #ec2997; stroke-width: 0.3; stroke-linecap: square"/>
   </g>
   <g id="line2d_57">
    <path d="M 223.157529 190.882444 
L 222.777339 152.074037 
" clip-path="url(#p6bae7964a8)" style="fill: none; stroke: #ec2997; stroke-width: 0.3; stroke-linecap: square"/>
   </g>
   <g id="line2d_58">
    <path d="M 211.171132 160.213412 
L 210.533124 121.712196 
" clip-path="url(#p6bae7964a8)" style="fill: none; stroke: #ec2997; stroke-width: 0.3; stroke-linecap: square"/>
   </g>
   <g id="line2d_59">
    <path d="M 240.857546 179.418373 
L 240.882533 140.720726 
" clip-path="url(#p6bae7964a8)" style="fill: none; stroke: #ec2997; stroke-width: 0.3; stroke-linecap: square"/>
   </g>
   <g id="line2d_60">
    <path d="M 273.430794 177.82016 
L 274.193715 139.13834 
" clip-path="url(#p6bae7964a8)" style="fill: none; stroke: #ec2997; stroke-width: 0.3; stroke-linecap: square"/>
   </g>
   <g id="line2d_61">
    <path d="M 247.562216 155.928443 
L 247.735808 117.472913 
" clip-path="url(#p6bae7964a8)" style="fill: none; stroke: #ec2997; stroke-width: 0.3; stroke-linecap: square"/>
   </g>
   <g id="line2d_62">
    <path d="M 294.692333 163.824521 
L 295.922277 125.285329 
" clip-path="url(#p6bae7964a8)" style="fill: none; stroke: #ec2997; stroke-width: 0.3; stroke-linecap: square"/>
   </g>
   <g id="line2d_63">
    <path d="M 321.606853 186.00993 
L 323.474031 147.248005 
" clip-path="url(#p6bae7964a8)" style="fill: none; stroke: #ec2997; stroke-width: 0.3; stroke-linecap: square"/>
   </g>
   <g id="line2d_64">
    <path d="M 233.093541 246.241409 
L 184.360026 156.57195 
" clip-path="url(#p6bae7964a8)" style="fill: none; stroke: #ec2997; stroke-width: 0.3; stroke-linecap: square"/>
   </g>
   <g id="line2d_65">
    <path d="M 197.278318 227.948356 
L 219.867875 173.773693 
" clip-path="url(#p6bae7964a8)" style="fill: none; stroke: #ec2997; stroke-width: 0.3; stroke-linecap: square"/>
   </g>
   <g id="line2d_66">
    <path d="M 185.605052 195.422881 
L 222.777339 152.074037 
" clip-path="url(#p6bae7964a8)" style="fill: none; stroke: #ec2997; stroke-width: 0.3; stroke-linecap: square"/>
   </g>
   <g id="line2d_67">
    <path d="M 220.321163 212.780153 
L 192.435128 132.699979 
" clip-path="url(#p6bae7964a8)" style="fill: none; stroke: #ec2997; stroke-width: 0.3; stroke-linecap: square"/>
   </g>
   <g id="line2d_68">
    <path d="M 193.477847 171.31642 
L 240.882533 140.720726 
" clip-path="url(#p6bae7964a8)" style="fill: none; stroke: #ec2997; stroke-width: 0.3; stroke-linecap: square"/>
   </g>
   <g id="line2d_69">
    <path d="M 223.157529 190.882444 
L 210.533124 121.712196 
" clip-path="url(#p6bae7964a8)" style="fill: none; stroke: #ec2997; stroke-width: 0.3; stroke-linecap: square"/>
   </g>
   <g id="line2d_70">
    <path d="M 240.857546 179.418373 
L 247.735808 117.472913 
" clip-path="url(#p6bae7964a8)" style="fill: none; stroke: #ec2997; stroke-width: 0.3; stroke-linecap: square"/>
   </g>
   <g id="line2d_71">
    <path d="M 211.171132 160.213412 
L 274.193715 139.13834 
" clip-path="url(#p6bae7964a8)" style="fill: none; stroke: #ec2997; stroke-width: 0.3; stroke-linecap: square"/>
   </g>
   <g id="line2d_72">
    <path d="M 294.692333 163.824521 
L 274.193715 139.13834 
" clip-path="url(#p6bae7964a8)" style="fill: none; stroke: #ec2997; stroke-width: 0.3; stroke-linecap: square"/>
   </g>
   <g id="line2d_73">
    <path d="M 321.606853 186.00993 
L 247.735808 117.472913 
" clip-path="url(#p6bae7964a8)" style="fill: none; stroke: #ec2997; stroke-width: 0.3; stroke-linecap: square"/>
   </g>
   <g id="Path3DCollection_1">
    <defs>
     <path id="m39ea36c0f7" d="M 0 1.581139 
C 0.419323 1.581139 0.821528 1.41454 1.118034 1.118034 
C 1.41454 0.821528 1.581139 0.419323 1.581139 0 
C 1.581139 -0.419323 1.41454 -0.821528 1.118034 -1.118034 
C 0.821528 -1.41454 0.419323 -1.581139 0 -1.581139 
C -0.419323 -1.581139 -0.821528 -1.41454 -1.118034 -1.118034 
C -1.41454 -0.821528 -1.581139 -0.419323 -1.581139 0 
C -1.581139 0.419323 -1.41454 0.821528 -1.118034 1.118034 
C -0.821528 1.41454 -0.419323 1.581139 0 1.581139 
z
" style="stroke: #17becf"/>
    </defs>
    <g clip-path="url(#p6bae7964a8)">
     <use xlink:href="#m39ea36c0f7" x="247.562216" y="155.928443" style="fill: #17becf; stroke: #17becf"/>
    </g>
   </g>
   <g id="Path3DCollection_2">
    <defs>
     <path id="ma409d9d5b1" d="M 0 1.581139 
C 0.419323 1.581139 0.821528 1.41454 1.118034 1.118034 
C 1.41454 0.821528 1.581139 0.419323 1.581139 0 
C 1.581139 -0.419323 1.41454 -0.821528 1.118034 -1.118034 
C 0.821528 -1.41454 0.419323 -1.581139 0 -1.581139 
C -0.419323 -1.581139 -0.821528 -1.41454 -1.118034 -1.118034 
C -1.41454 -0.821528 -1.581139 -0.419323 -1.581139 0 
C -1.581139 0.419323 -1.41454 0.821528 -1.118034 1.118034 
C -0.821528 1.41454 -0.419323 1.581139 0 1.581139 
z
" style="stroke: #e377c2"/>
    </defs>
    <g clip-path="url(#p6bae7964a8)">
     <use xlink:href="#ma409d9d5b1" x="211.171132" y="160.213412" style="fill: #e377c2; stroke: #e377c2"/>
    </g>
   </g>
   <g id="Path3DCollection_3">
    <defs>
     <path id="m44cc1facff" d="M 0 1.581139 
C 0.419323 1.581139 0.821528 1.41454 1.118034 1.118034 
C 1.41454 0.821528 1.581139 0.419323 1.581139 0 
C 1.581139 -0.419323 1.41454 -0.821528 1.118034 -1.118034 
C 0.821528 -1.41454 0.419323 -1.581139 0 -1.581139 
C -0.419323 -1.581139 -0.821528 -1.41454 -1.118034 -1.118034 
C -1.41454 -0.821528 -1.581139 -0.419323 -1.581139 0 
C -1.581139 0.419323 -1.41454 0.821528 -1.118034 1.118034 
C -0.821528 1.41454 -0.419323 1.581139 0 1.581139 
z
" style="stroke: #1f77b4"/>
    </defs>
    <g clip-path="url(#p6bae7964a8)">
     <use xlink:href="#m44cc1facff" x="294.692333" y="163.824521" style="fill: #1f77b4; stroke: #1f77b4"/>
    </g>
   </g>
   <g id="Path3DCollection_4">
    <defs>
     <path id="md22bb54b73" d="M 0 1.581139 
C 0.419323 1.581139 0.821528 1.41454 1.118034 1.118034 
C 1.41454 0.821528 1.581139 0.419323 1.581139 0 
C 1.581139 -0.419323 1.41454 -0.821528 1.118034 -1.118034 
C 0.821528 -1.41454 0.419323 -1.581139 0 -1.581139 
C -0.419323 -1.581139 -0.821528 -1.41454 -1.118034 -1.118034 
C -1.41454 -0.821528 -1.581139 -0.419323 -1.581139 0 
C -1.581139 0.419323 -1.41454 0.821528 -1.118034 1.118034 
C -0.821528 1.41454 -0.419323 1.581139 0 1.581139 
z
" style="stroke: #9467bd"/>
    </defs>
    <g clip-path="url(#p6bae7964a8)">
     <use xlink:href="#md22bb54b73" x="193.477847" y="171.31642" style="fill: #9467bd; stroke: #9467bd"/>
    </g>
   </g>
   <g id="Path3DCollection_5">
    <defs>
     <path id="m9a94691df0" d="M 0 1.581139 
C 0.419323 1.581139 0.821528 1.41454 1.118034 1.118034 
C 1.41454 0.821528 1.581139 0.419323 1.581139 0 
C 1.581139 -0.419323 1.41454 -0.821528 1.118034 -1.118034 
C 0.821528 -1.41454 0.419323 -1.581139 0 -1.581139 
C -0.419323 -1.581139 -0.821528 -1.41454 -1.118034 -1.118034 
C -1.41454 -0.821528 -1.581139 -0.419323 -1.581139 0 
C -1.581139 0.419323 -1.41454 0.821528 -1.118034 1.118034 
C -0.821528 1.41454 -0.419323 1.581139 0 1.581139 
z
" style="stroke: #bcbd22"/>
    </defs>
    <g clip-path="url(#p6bae7964a8)">
     <use xlink:href="#m9a94691df0" x="273.430794" y="177.82016" style="fill: #bcbd22; stroke: #bcbd22"/>
    </g>
   </g>
   <g id="Path3DCollection_6">
    <defs>
     <path id="m893cb384fa" d="M 0 1.581139 
C 0.419323 1.581139 0.821528 1.41454 1.118034 1.118034 
C 1.41454 0.821528 1.581139 0.419323 1.581139 0 
C 1.581139 -0.419323 1.41454 -0.821528 1.118034 -1.118034 
C 0.821528 -1.41454 0.419323 -1.581139 0 -1.581139 
C -0.419323 -1.581139 -0.821528 -1.41454 -1.118034 -1.118034 
C -1.41454 -0.821528 -1.581139 -0.419323 -1.581139 0 
C -1.581139 0.419323 -1.41454 0.821528 -1.118034 1.118034 
C -0.821528 1.41454 -0.419323 1.581139 0 1.581139 
z
" style="stroke: #7f7f7f"/>
    </defs>
    <g clip-path="url(#p6bae7964a8)">
     <use xlink:href="#m893cb384fa" x="240.857546" y="179.418373" style="fill: #7f7f7f; stroke: #7f7f7f"/>
    </g>
   </g>
   <g id="Path3DCollection_7">
    <defs>
     <path id="m5a7d395e2d" d="M 0 1.581139 
C 0.419323 1.581139 0.821528 1.41454 1.118034 1.118034 
C 1.41454 0.821528 1.581139 0.419323 1.581139 0 
C 1.581139 -0.419323 1.41454 -0.821528 1.118034 -1.118034 
C 0.821528 -1.41454 0.419323 -1.581139 0 -1.581139 
C -0.419323 -1.581139 -0.821528 -1.41454 -1.118034 -1.118034 
C -1.41454 -0.821528 -1.581139 -0.419323 -1.581139 0 
C -1.581139 0.419323 -1.41454 0.821528 -1.118034 1.118034 
C -0.821528 1.41454 -0.419323 1.581139 0 1.581139 
z
" style="stroke: #ff7f0e"/>
    </defs>
    <g clip-path="url(#p6bae7964a8)">
     <use xlink:href="#m5a7d395e2d" x="247.735808" y="117.472913" style="fill: #ff7f0e; stroke: #ff7f0e"/>
    </g>
   </g>
   <g id="Path3DCollection_8">
    <g clip-path="url(#p6bae7964a8)">
     <use xlink:href="#m5a7d395e2d" x="321.606853" y="186.00993" style="fill: #ff7f0e; stroke: #ff7f0e"/>
    </g>
   </g>
   <g id="Path3DCollection_9">
    <g clip-path="url(#p6bae7964a8)">
     <use xlink:href="#m9a94691df0" x="210.533124" y="121.712196" style="fill: #bcbd22; stroke: #bcbd22"/>
    </g>
   </g>
   <g id="Path3DCollection_10">
    <defs>
     <path id="m4b6886797d" d="M 0 1.581139 
C 0.419323 1.581139 0.821528 1.41454 1.118034 1.118034 
C 1.41454 0.821528 1.581139 0.419323 1.581139 0 
C 1.581139 -0.419323 1.41454 -0.821528 1.118034 -1.118034 
C 0.821528 -1.41454 0.419323 -1.581139 0 -1.581139 
C -0.419323 -1.581139 -0.821528 -1.41454 -1.118034 -1.118034 
C -1.41454 -0.821528 -1.581139 -0.419323 -1.581139 0 
C -1.581139 0.419323 -1.41454 0.821528 -1.118034 1.118034 
C -0.821528 1.41454 -0.419323 1.581139 0 1.581139 
z
" style="stroke: #2ca02c"/>
    </defs>
    <g clip-path="url(#p6bae7964a8)">
     <use xlink:href="#m4b6886797d" x="295.922277" y="125.285329" style="fill: #2ca02c; stroke: #2ca02c"/>
    </g>
   </g>
   <g id="Path3DCollection_11">
    <defs>
     <path id="m1bd635c570" d="M 0 1.581139 
C 0.419323 1.581139 0.821528 1.41454 1.118034 1.118034 
C 1.41454 0.821528 1.581139 0.419323 1.581139 0 
C 1.581139 -0.419323 1.41454 -0.821528 1.118034 -1.118034 
C 0.821528 -1.41454 0.419323 -1.581139 0 -1.581139 
C -0.419323 -1.581139 -0.821528 -1.41454 -1.118034 -1.118034 
C -1.41454 -0.821528 -1.581139 -0.419323 -1.581139 0 
C -1.581139 0.419323 -1.41454 0.821528 -1.118034 1.118034 
C -0.821528 1.41454 -0.419323 1.581139 0 1.581139 
z
" style="stroke: #8c564b"/>
    </defs>
    <g clip-path="url(#p6bae7964a8)">
     <use xlink:href="#m1bd635c570" x="223.157529" y="190.882444" style="fill: #8c564b; stroke: #8c564b"/>
    </g>
   </g>
   <g id="Path3DCollection_12">
    <g clip-path="url(#p6bae7964a8)">
     <use xlink:href="#m4b6886797d" x="185.605052" y="195.422881" style="fill: #2ca02c; stroke: #2ca02c"/>
    </g>
   </g>
   <g id="Path3DCollection_13">
    <g clip-path="url(#p6bae7964a8)">
     <use xlink:href="#ma409d9d5b1" x="192.435128" y="132.699979" style="fill: #e377c2; stroke: #e377c2"/>
    </g>
   </g>
   <g id="Path3DCollection_14">
    <g clip-path="url(#p6bae7964a8)">
     <use xlink:href="#m44cc1facff" x="274.193715" y="139.13834" style="fill: #1f77b4; stroke: #1f77b4"/>
    </g>
   </g>
   <g id="Path3DCollection_15">
    <g clip-path="url(#p6bae7964a8)">
     <use xlink:href="#m39ea36c0f7" x="240.882533" y="140.720726" style="fill: #17becf; stroke: #17becf"/>
    </g>
   </g>
   <g id="Path3DCollection_16">
    <defs>
     <path id="m968ef81ffa" d="M 0 1.581139 
C 0.419323 1.581139 0.821528 1.41454 1.118034 1.118034 
C 1.41454 0.821528 1.581139 0.419323 1.581139 0 
C 1.581139 -0.419323 1.41454 -0.821528 1.118034 -1.118034 
C 0.821528 -1.41454 0.419323 -1.581139 0 -1.581139 
C -0.419323 -1.581139 -0.821528 -1.41454 -1.118034 -1.118034 
C -1.41454 -0.821528 -1.581139 -0.419323 -1.581139 0 
C -1.581139 0.419323 -1.41454 0.821528 -1.118034 1.118034 
C -0.821528 1.41454 -0.419323 1.581139 0 1.581139 
z
" style="stroke: #d62728"/>
    </defs>
    <g clip-path="url(#p6bae7964a8)">
     <use xlink:href="#m968ef81ffa" x="220.321163" y="212.780153" style="fill: #d62728; stroke: #d62728"/>
    </g>
   </g>
   <g id="Path3DCollection_17">
    <g clip-path="url(#p6bae7964a8)">
     <use xlink:href="#m968ef81ffa" x="323.474031" y="147.248005" style="fill: #d62728; stroke: #d62728"/>
    </g>
   </g>
   <g id="Path3DCollection_18">
    <g clip-path="url(#p6bae7964a8)">
     <use xlink:href="#m893cb384fa" x="222.777339" y="152.074037" style="fill: #7f7f7f; stroke: #7f7f7f"/>
    </g>
   </g>
   <g id="Path3DCollection_19">
    <g clip-path="url(#p6bae7964a8)">
     <use xlink:href="#md22bb54b73" x="184.360026" y="156.57195" style="fill: #9467bd; stroke: #9467bd"/>
    </g>
   </g>
   <g id="Path3DCollection_20">
    <g clip-path="url(#p6bae7964a8)">
     <use xlink:href="#m5a7d395e2d" x="197.278318" y="227.948356" style="fill: #ff7f0e; stroke: #ff7f0e"/>
    </g>
   </g>
   <g id="Path3DCollection_21">
    <g clip-path="url(#p6bae7964a8)">
     <use xlink:href="#m1bd635c570" x="219.867875" y="173.773693" style="fill: #8c564b; stroke: #8c564b"/>
    </g>
   </g>
   <g id="Path3DCollection_22">
    <g clip-path="url(#p6bae7964a8)">
     <use xlink:href="#m44cc1facff" x="233.093541" y="246.241409" style="fill: #1f77b4; stroke: #1f77b4"/>
    </g>
   </g>
   <g id="Path3DCollection_23">
    <g clip-path="url(#p6bae7964a8)">
     <use xlink:href="#m968ef81ffa" x="196.275277" y="188.815117" style="fill: #d62728; stroke: #d62728"/>
    </g>
   </g>
   <g id="Path3DCollection_24">
    <g clip-path="url(#p6bae7964a8)">
     <use xlink:href="#m4b6886797d" x="232.933885" y="206.966616" style="fill: #2ca02c; stroke: #2ca02c"/>
    </g>
   </g>
  </g>
 </g>
 <defs>
  <clipPath id="p6bae7964a8">
   <rect x="103.104" y="41.472" width="266.112" height="266.112"/>
  </clipPath>
 </defs>
</svg>
